<svg xmlns="http://www.w3.org/2000/svg" viewBox="0 0 800 644" class="map-svg">
<path d="M124.3,83.7L138.0,83.2L144.6,81.7L147.0,81.8L150.4,82.4L151.8,82.6L155.0,82.6L158.2,82.1L159.6,81.5L163.0,78.9L165.2,78.2L167.5,78.1L174.5,78.9L174.9,78.9L179.0,81.7L181.6,82.1L182.4,81.7L184.6,80.1L185.5,79.5L186.0,79.4L187.4,79.5L187.8,79.4L188.2,78.8L188.4,77.6L188.6,77.3L191.2,76.4L196.0,77.2L197.9,76.9L198.7,76.8L199.8,75.8L200.2,74.8L200.2,73.8L200.4,73.0L201.3,72.1L204.8,70.3L204.8,70.3L204.8,70.3L206.1,68.5L209.4,66.1L210.6,64.7L210.8,64.0L210.8,63.7L210.9,62.1L211.3,61.3L212.0,60.6L213.5,59.8L214.4,59.3L217.2,58.1L223.2,56.8L223.6,56.6L224.5,55.8L224.9,55.6L225.6,55.8L225.9,56.2L226.1,56.7L226.3,56.9L229.4,58.2L230.1,58.4L232.0,57.9L235.3,55.6L237.5,54.8L239.6,54.7L240.3,54.8L241.4,54.9L244.9,55.7L247.7,56.0L248.6,56.2L248.8,56.5L248.9,57.8L249.1,58.1L249.7,58.1L250.5,57.8L252.2,57.7L254.6,57.4L255.8,57.5L256.6,57.8L258.6,58.7L259.6,59.0L262.4,59.1L263.9,59.0L265.2,58.8L267.0,58.3L268.4,58.3L271.5,58.7L273.5,58.6L274.9,58.2L275.3,58.1L276.9,57.1L278.5,55.5L278.7,54.8L278.6,53.9L278.9,53.2L280.3,53.0L281.4,53.2L281.5,53.3L281.9,53.7L282.3,54.4L283.1,55.1L284.7,56.3L285.9,56.7L286.9,56.2L288.0,54.3L288.9,50.7L289.3,43.4L289.4,43.0L290.2,40.4L291.3,39.7L293.0,38.6L294.5,38.4L297.2,38.0L305.6,38.5L324.0,40.7L327.9,40.3L330.0,39.8L331.0,39.4L331.9,38.8L332.4,37.9L332.5,36.2L332.8,35.5L334.2,34.5L336.2,33.5L338.4,32.8L340.1,32.7L341.8,33.6L342.6,34.7L343.6,35.4L345.6,35.2L347.2,34.5L350.1,33.0L351.8,32.6L361.0,32.8L367.1,35.1L370.2,35.2L371.4,34.7L371.6,34.5L374.0,32.8L375.8,32.3L378.8,32.3L381.9,32.8L383.4,32.5L385.5,29.8L386.9,29.3L388.5,29.4L390.5,29.2L392.4,28.9L393.9,28.3L396.4,26.6L397.2,26.6L401.6,29.1L402.9,29.0L404.5,27.8L405.0,27.6L405.5,27.5L405.9,27.3L406.3,26.6L408.3,27.6L409.4,27.8L410.5,27.4L411.0,26.7L411.1,25.9L410.8,23.8L410.6,20.9L413.3,19.9L417.0,20.2L419.8,20.8L420.5,21.2L420.9,21.7L421.3,22.1L422.0,22.2L422.3,21.8L422.7,20.4L423.1,19.8L424.4,18.9L424.6,18.8L426.1,18.1L427.9,17.5L429.5,17.4L431.0,18.6L432.8,19.5L432.9,20.3L432.7,21.1L432.9,21.6L433.7,21.8L434.4,21.7L435.0,21.4L435.8,21.3L438.3,21.5L439.1,21.5L442.2,20.8L443.6,20.7L445.6,20.9L447.0,20.7L448.9,18.7L450.9,18.3L453.6,17.5L455.5,18.8L456.7,21.3L457.0,23.8L457.2,24.6L457.6,25.0L458.1,25.4L458.6,25.9L458.9,26.2L459.8,26.6L460.2,27.0L460.3,27.4L460.1,28.4L460.1,28.8L461.6,29.8L462.8,30.0L466.1,30.0L465.5,30.9L467.6,30.9L469.5,31.1L471.2,31.7L473.0,32.9L476.1,36.0L478.1,37.4L480.0,37.4L480.8,36.1L480.5,34.5L480.8,33.2L484.4,33.0L486.4,32.5L487.3,32.4L488.5,32.5L491.4,33.8L506.6,38.7L508.1,38.4L508.6,38.4L508.8,38.7L509.6,39.6L509.9,39.9L513.4,41.1L513.8,41.3L515.5,42.4L519.5,46.5L521.3,47.3L523.5,47.6L525.6,47.5L541.2,43.6L543.6,43.3L544.6,43.4L545.3,43.6L546.0,43.6L546.9,43.4L547.7,42.6L548.3,41.6L549.1,40.7L550.3,40.4L558.5,40.8L559.4,41.0L561.4,41.9L562.2,42.1L563.3,42.0L563.9,41.7L564.6,41.2L565.7,40.5L566.8,40.2L570.0,40.1L573.5,38.3L574.4,38.0L576.5,38.6L579.2,40.9L581.0,41.5L582.3,41.2L584.7,40.3L585.9,40.4L587.2,40.5L588.2,40.4L590.3,39.7L592.8,38.4L594.0,38.0L601.9,36.6L602.6,36.7L603.2,36.5L604.3,35.2L605.7,32.8L606.7,30.5L607.2,30.0L607.8,29.8L608.3,29.6L608.4,28.8L608.2,28.3L606.9,27.4L606.5,26.9L605.5,25.3L605.7,24.7L606.8,23.8L607.1,22.7L607.2,21.6L607.1,20.6L606.7,19.3L606.1,18.9L604.7,18.7L604.2,18.4L604.0,17.7L604.1,16.3L604.1,15.6L603.2,13.2L602.7,12.4L601.9,11.7L600.8,11.3L599.5,11.1L598.2,10.7L597.5,9.9L597.1,9.4L596.6,8.4L596.4,7.0L596.4,5.7L597.0,4.5L597.6,4.0L598.2,3.9L598.8,3.8L599.5,3.6L602.0,2.1L604.5,1.6L609.6,1.5L611.6,0.0L613.0,0.1L613.7,0.4L616.2,2.5L617.4,3.3L619.4,3.7L622.9,3.5L625.4,3.3L627.0,3.7L629.5,5.4L633.1,6.1L634.7,6.7L636.2,6.9L635.9,8.3L635.1,9.5L640.4,12.4L644.6,14.1L645.5,14.8L647.3,12.8L647.3,13.5L647.4,14.2L647.6,14.8L647.9,15.4L647.5,16.5L647.9,18.9L647.3,19.8L648.3,21.1L648.7,22.7L649.2,26.2L650.7,30.7L651.1,32.6L651.1,34.5L650.6,36.5L649.8,38.1L648.6,39.0L646.9,39.1L644.9,38.7L643.1,38.0L642.1,37.0L637.4,40.8L636.4,40.9L636.0,41.2L635.8,41.7L635.3,42.1L632.7,43.4L630.2,45.0L628.7,45.6L622.8,46.1L621.7,46.8L623.2,48.4L622.2,50.5L621.8,52.3L622.1,53.9L623.2,55.5L621.4,57.6L621.4,58.3L622.8,58.6L623.5,59.1L621.9,61.5L622.2,62.8L623.5,64.9L624.3,65.9L626.7,66.8L626.8,67.9L626.2,69.0L625.4,69.5L624.0,69.6L623.2,70.0L622.9,70.5L623.2,71.4L624.2,72.3L625.1,72.6L625.3,73.0L624.4,73.9L623.1,74.7L620.4,75.6L619.3,76.5L619.6,76.9L620.1,77.5L620.2,78.1L619.0,78.4L618.2,78.3L617.5,78.0L617.0,77.6L616.7,77.1L616.2,77.1L615.4,78.9L614.9,79.8L614.2,80.3L613.6,80.3L613.4,79.9L613.0,79.0L613.0,80.0L612.9,80.5L612.5,80.7L611.7,80.9L611.6,81.3L611.7,81.5L612.0,81.5L612.3,81.6L611.4,81.9L611.1,82.2L611.0,82.8L611.7,83.9L606.7,87.1L605.3,88.8L604.5,91.3L602.4,93.2L599.5,94.2L596.1,94.0L596.3,93.6L595.3,92.2L595.1,90.3L594.5,88.6L592.5,87.9L592.5,87.3L593.8,87.3L595.5,87.1L597.0,86.8L597.6,86.3L597.0,85.4L595.6,85.2L594.1,85.5L593.1,86.0L592.7,85.4L592.5,84.7L591.8,84.7L591.8,85.4L592.2,85.8L592.5,86.7L591.8,86.7L590.4,85.4L587.5,84.0L584.4,83.3L582.4,84.1L580.8,83.8L575.8,83.6L574.7,83.1L573.7,83.0L567.1,83.5L563.3,82.9L559.2,81.8L555.2,81.2L551.8,82.2L551.0,82.0L549.0,81.7L547.1,80.9L545.7,79.9L544.3,79.2L539.7,78.5L538.1,78.4L534.7,77.2L530.7,75.1L526.9,74.2L523.8,76.5L523.2,76.5L523.1,76.0L515.9,75.0L513.9,74.2L512.7,73.5L511.9,73.4L511.5,73.1L511.7,72.0L512.1,71.2L512.9,70.6L513.8,70.2L514.9,70.1L513.2,69.2L512.0,68.8L504.4,68.8L502.7,69.1L502.8,70.7L500.8,72.0L499.7,72.5L498.3,72.6L499.0,74.3L498.1,75.1L496.5,75.2L494.8,75.2L493.6,75.4L490.6,76.8L489.1,77.1L486.4,78.5L483.7,81.3L480.7,83.3L477.3,82.2L473.9,83.4L472.0,83.5L470.3,82.8L470.7,82.6L470.8,82.5L471.0,82.2L467.8,80.9L465.8,82.3L465.2,82.8L464.6,82.8L463.8,81.3L462.8,80.0L461.6,78.9L462.0,77.7L460.7,77.2L459.7,76.5L459.0,75.5L458.8,74.2L454.3,73.6L453.1,73.3L452.2,73.8L451.2,73.9L450.1,74.2L449.3,75.2L447.4,74.5L444.8,74.7L442.6,75.6L440.8,77.7L436.6,80.3L435.3,80.9L436.4,81.6L437.1,82.4L437.0,83.1L435.0,83.6L434.6,83.9L434.6,84.4L435.0,85.0L435.5,85.3L437.0,85.2L437.9,85.4L425.8,90.7L416.4,95.0L413.0,95.6L409.0,95.4L404.9,94.6L394.5,90.3L392.7,90.0L391.5,89.8L388.5,90.1L383.4,91.7L381.3,92.7L379.3,94.1L378.1,95.6L377.6,98.0L378.4,100.0L380.0,101.4L382.2,101.9L383.5,102.6L385.1,104.3L386.4,106.3L387.0,107.9L387.5,108.1L390.7,110.2L392.0,110.5L393.4,110.6L394.8,110.5L395.9,110.2L396.5,111.2L398.3,112.5L398.4,113.4L397.6,113.8L391.2,114.4L389.8,115.5L389.4,117.3L390.1,119.7L394.0,124.1L394.9,124.8L397.8,125.9L398.4,126.4L401.9,127.0L402.9,127.3L403.9,126.9L406.4,126.7L407.3,126.1L407.3,125.2L406.7,124.0L405.4,122.2L406.1,121.6L405.4,121.0L407.3,120.8L408.9,122.4L411.2,126.1L412.3,127.2L414.2,128.6L416.3,129.4L418.1,128.6L419.1,129.1L421.9,129.8L422.9,129.9L423.6,130.4L424.6,132.4L425.2,133.1L427.9,133.1L430.9,135.7L436.0,141.4L441.8,145.9L442.8,148.4L439.8,150.2L435.8,151.0L434.1,150.6L433.4,149.3L432.8,147.6L431.5,146.7L429.8,146.0L428.3,145.2L425.9,142.3L424.1,139.4L421.9,137.0L418.1,135.6L410.7,134.6L408.0,133.7L405.6,132.5L402.3,129.8L400.3,128.6L399.0,128.2L395.5,128.6L392.1,127.9L390.7,128.0L386.0,129.8L383.9,130.1L381.2,129.2L380.9,129.7L380.3,130.5L379.9,130.5L378.3,132.2L377.8,133.8L377.9,135.3L379.4,138.3L379.9,138.8L380.5,139.4L383.7,141.0L384.3,142.5L385.6,143.7L387.0,144.3L387.6,144.2L393.9,146.5L395.1,146.2L396.6,146.6L398.2,147.6L399.3,148.6L400.7,149.4L404.4,150.4L405.4,151.5L405.3,152.3L404.1,153.2L404.1,154.1L404.7,154.7L406.3,155.6L406.7,156.3L406.4,157.1L405.7,157.2L405.1,157.2L404.7,157.6L405.0,158.6L405.6,159.1L406.4,159.0L407.3,158.5L407.3,159.4L407.3,160.1L407.6,160.6L408.0,161.0L405.5,162.6L405.1,163.5L406.1,164.3L406.1,164.9L404.3,164.9L403.4,165.5L403.7,166.1L405.4,166.2L405.4,166.9L400.6,167.0L398.8,166.6L399.0,165.5L399.0,164.9L398.4,164.9L397.6,165.3L397.0,165.2L396.7,164.6L397.2,163.6L393.9,162.2L393.3,162.0L392.9,161.0L391.8,160.3L390.5,160.1L389.9,160.5L389.8,160.9L390.1,161.7L386.7,157.3L386.3,156.3L386.8,154.8L387.0,153.8L386.6,153.4L385.6,153.1L385.1,152.4L384.7,151.5L384.3,150.8L376.1,142.3L372.9,140.7L371.2,140.3L363.5,139.8L358.3,137.5L354.1,136.6L350.3,136.8L347.2,138.2L344.9,141.4L344.7,143.2L345.4,144.8L346.3,146.3L346.8,148.0L347.1,148.6L347.8,148.9L349.7,149.0L350.5,149.2L351.1,149.6L352.0,150.8L356.9,156.3L359.7,158.6L369.3,162.7L375.6,163.8L375.8,164.4L375.8,165.2L376.1,166.2L377.0,167.3L378.1,168.1L379.6,168.5L381.5,168.7L382.8,169.0L382.1,169.7L380.4,170.3L378.6,170.7L370.6,169.7L357.1,165.2L354.8,164.9L347.9,165.8L346.8,166.2L347.3,165.1L348.5,163.4L348.8,162.3L348.5,161.5L347.1,160.1L346.8,159.5L346.1,157.2L344.5,155.6L342.7,154.3L341.7,152.8L343.0,149.8L343.5,146.3L342.9,143.0L341.1,140.7L337.4,139.0L335.3,138.4L331.9,137.8L330.3,137.1L328.8,136.6L327.2,136.9L322.3,134.1L321.4,134.0L320.4,133.3L318.2,133.0L316.0,132.3L314.3,129.9L310.0,127.3L308.2,126.7L306.6,126.5L302.9,126.7L303.8,125.2L303.1,123.7L300.3,121.0L300.6,120.9L300.9,120.9L301.0,120.8L301.0,120.4L297.6,117.4L296.8,115.9L298.8,115.3L304.7,115.0L307.9,114.5L309.3,113.7L309.9,112.9L311.0,112.2L311.8,111.2L311.2,109.6L308.9,108.5L308.3,108.3L307.9,108.0L308.1,107.4L308.6,106.3L307.2,104.0L305.0,102.7L302.5,102.4L299.8,103.2L300.4,104.9L300.2,106.3L299.5,107.4L298.5,108.3L297.0,108.9L296.2,109.3L296.2,109.6L294.4,109.5L293.6,109.3L292.7,108.9L290.9,109.8L289.7,111.0L289.4,112.4L290.1,114.0L289.6,114.0L288.9,113.4L288.9,114.7L288.3,114.7L288.3,114.0L287.6,114.0L287.2,115.1L286.5,115.0L285.5,114.5L284.4,114.0L284.4,113.6L283.0,113.6L281.5,114.6L281.4,115.7L283.2,116.5L282.3,116.5L281.7,116.8L281.4,117.3L281.3,118.1L280.9,118.6L280.0,118.5L278.7,117.8L276.4,117.9L275.3,118.2L274.2,119.1L275.6,120.0L276.5,121.3L277.0,122.8L276.8,124.1L277.9,124.9L278.8,126.0L279.9,126.9L281.6,127.3L281.9,128.3L280.6,130.4L278.1,133.7L275.3,140.1L275.3,141.2L271.8,147.1L271.5,149.2L272.2,150.7L273.2,152.3L273.7,154.4L273.3,156.5L273.5,157.5L274.6,157.9L275.0,158.4L276.2,161.0L281.1,164.2L281.9,164.6L282.4,164.9L284.6,165.5L285.1,165.8L285.3,166.2L286.2,166.1L286.4,166.5L286.3,168.2L286.4,168.6L286.4,168.7L287.6,172.0L288.3,173.2L289.3,174.2L292.8,176.5L294.9,177.4L296.2,178.4L298.5,180.8L299.4,182.0L300.2,183.6L300.8,185.5L301.0,187.5L301.4,188.9L304.2,194.2L306.4,199.7L307.7,201.5L309.0,202.5L313.8,204.9L318.5,206.4L322.1,208.6L322.4,208.8L322.8,209.2L323.9,212.0L325.0,213.2L332.9,220.2L334.1,222.1L338.5,225.4L340.5,230.4L345.1,237.5L345.3,238.7L344.3,239.2L341.3,241.3L339.5,241.8L336.0,242.2L334.2,242.7L332.8,243.2L333.3,243.4L333.7,243.6L334.1,243.8L334.7,243.8L334.7,244.4L333.9,244.6L333.2,244.9L332.7,245.3L332.2,245.7L331.1,245.4L329.0,245.5L326.9,246.0L325.6,246.6L324.1,247.2L321.9,247.1L318.2,246.3L319.0,245.0L320.1,243.8L319.6,242.6L320.9,241.7L323.9,240.6L323.9,241.8L322.7,245.7L329.3,242.9L330.3,241.8L329.6,241.0L330.2,240.7L331.1,240.7L331.5,240.9L331.8,241.3L332.5,240.8L333.2,239.8L333.5,238.7L333.0,237.7L330.6,234.6L329.6,233.6L330.0,232.1L329.0,230.5L327.4,228.9L325.8,227.8L324.1,226.9L322.4,226.4L315.2,225.9L315.2,225.6L315.3,225.2L315.1,224.7L314.6,224.2L313.7,222.7L313.2,222.2L312.5,222.1L310.0,222.2L307.9,221.8L307.4,221.9L308.0,222.8L308.0,223.4L307.1,224.2L306.7,225.3L307.0,226.4L308.0,227.2L305.8,227.7L302.2,228.0L298.7,228.6L297.2,230.1L297.0,233.7L297.2,234.9L299.8,240.6L300.3,240.6L301.1,239.6L302.3,238.7L301.9,237.7L302.4,237.7L303.1,238.3L303.6,239.4L304.2,238.7L305.1,240.2L305.4,242.0L306.0,243.8L307.4,245.1L307.4,244.6L307.5,244.5L307.7,244.5L308.0,244.4L307.6,243.8L307.4,243.2L309.7,244.3L310.9,245.9L311.7,247.6L313.2,248.9L312.6,250.1L312.7,250.3L313.2,250.8L310.2,252.2L309.5,253.1L310.0,254.6L314.8,252.3L317.3,251.7L320.1,251.5L320.1,252.0L319.3,252.7L316.3,254.0L315.5,254.6L315.1,255.3L314.4,257.2L314.0,257.8L313.4,258.5L313.0,258.8L312.6,259.1L311.9,259.6L311.4,259.7L310.0,259.6L309.3,259.6L308.7,260.1L308.2,260.3L307.4,260.3L307.8,261.3L308.0,261.7L306.7,261.8L304.8,262.6L303.9,262.9L302.8,262.7L301.6,262.3L300.3,262.0L299.1,262.2L298.6,262.9L298.2,265.0L297.5,265.5L295.2,265.5L294.4,265.9L294.0,266.7L292.7,266.7L290.5,267.1L288.5,267.2L287.6,266.4L287.2,265.6L286.2,265.9L284.4,266.7L283.7,266.5L282.1,265.7L281.6,265.5L281.4,265.2L278.2,263.3L277.4,263.5L275.7,264.4L275.1,264.9L274.4,265.3L273.4,265.5L272.5,265.5L271.7,265.7L271.1,266.1L270.5,266.7L270.1,266.5L269.2,266.0L269.2,268.6L273.7,268.0L273.7,268.6L271.9,269.5L272.8,270.6L274.6,271.0L275.6,269.8L276.2,269.8L275.6,271.2L276.9,271.1L278.2,270.8L279.2,270.7L280.0,271.2L284.6,269.3L285.7,269.3L288.0,272.1L289.9,274.0L290.9,274.5L291.9,275.4L292.7,275.7L293.5,275.6L295.3,275.1L296.2,275.0L297.5,275.3L299.0,276.0L300.3,277.0L301.0,278.1L302.9,276.6L303.9,276.3L305.4,276.2L306.4,276.6L308.3,277.9L309.6,278.1L314.8,278.2L317.2,278.9L318.9,280.7L321.7,288.0L323.0,289.0L324.8,289.1L325.7,288.9L326.8,288.0L327.9,287.6L329.0,287.7L330.3,287.5L331.5,286.4L329.8,285.4L328.9,285.2L330.7,284.6L332.4,284.9L335.4,286.4L336.9,286.8L340.0,287.1L341.7,287.7L343.1,288.5L344.1,289.7L344.5,291.0L344.3,292.1L343.2,293.1L341.8,293.6L340.6,294.5L339.8,296.6L340.8,295.5L341.9,295.5L343.0,296.1L344.0,296.9L345.0,297.6L347.5,298.1L348.8,298.5L348.8,299.2L348.0,299.4L345.8,299.5L344.9,299.7L344.1,300.4L343.9,301.0L344.4,301.5L345.9,301.7L352.2,301.4L361.6,302.7L362.7,302.0L363.8,300.7L366.0,301.7L369.2,304.2L367.3,305.2L366.6,305.5L366.6,306.1L367.8,306.4L368.7,306.8L369.1,307.3L368.5,308.1L368.5,308.7L371.4,309.8L375.8,315.2L379.3,317.0L380.7,317.0L386.0,316.4L388.1,317.4L389.1,317.6L398.1,320.6L400.0,320.8L401.7,321.2L403.1,322.3L405.4,324.6L409.8,327.5L410.5,328.1L410.9,328.7L412.6,329.2L413.0,330.0L412.8,330.8L412.5,331.5L412.7,332.1L413.7,332.8L412.7,333.1L412.2,333.9L411.9,334.9L411.7,336.1L411.2,334.8L409.7,334.9L405.2,336.9L405.3,338.8L406.7,342.8L407.1,344.5L407.9,345.8L408.8,346.8L409.3,347.5L409.0,348.4L407.8,350.4L407.3,351.3L407.3,352.1L407.6,353.0L407.7,354.1L407.3,355.2L408.3,355.2L409.4,355.4L410.2,356.0L410.5,357.0L410.1,357.5L407.3,358.3L408.0,358.9L408.8,359.4L409.8,359.6L411.2,359.6L410.5,360.3L411.0,360.4L412.4,360.8L411.9,361.7L411.7,362.3L412.0,362.9L412.4,363.4L412.0,363.6L411.6,363.8L411.3,364.2L411.2,364.7L413.4,365.8L414.1,366.7L414.3,368.2L414.2,370.2L413.8,371.2L411.7,373.0L413.0,373.6L413.0,374.3L411.7,374.3L411.7,374.9L412.3,374.9L412.4,375.2L412.3,375.6L412.4,376.2L412.3,375.9L412.3,375.7L412.2,375.6L411.7,376.2L412.9,377.1L412.1,378.1L410.5,379.3L409.3,380.6L408.2,380.0L404.6,378.9L403.2,378.7L401.5,378.2L400.9,377.0L401.0,373.6L400.3,373.6L399.0,374.1L398.2,372.4L397.2,368.5L396.8,368.7L395.9,369.2L395.2,367.7L393.7,366.1L392.0,365.1L390.7,365.3L390.3,365.0L390.0,364.8L389.7,364.6L389.4,364.1L388.8,364.1L388.3,366.0L387.4,366.0L386.4,365.7L385.7,366.6L385.5,366.0L385.5,365.5L385.2,365.3L384.3,365.3L384.9,364.2L384.5,363.2L382.5,361.5L382.3,359.7L378.4,355.2L378.1,353.9L376.5,353.3L374.9,353.6L373.3,354.1L371.7,354.5L371.6,354.0L371.7,353.9L372.6,353.6L372.8,353.3L372.9,352.7L371.5,353.1L370.7,352.6L370.0,351.8L368.8,351.3L367.5,351.3L366.4,351.2L365.4,350.8L364.7,350.1L368.0,347.7L368.9,346.3L368.2,344.7L367.3,344.0L366.7,343.9L366.1,344.1L365.3,344.3L361.8,344.3L360.8,344.5L360.2,344.9L359.8,345.4L359.3,345.6L357.1,345.7L356.1,345.9L355.1,346.3L351.6,348.8L350.0,349.4L353.2,350.1L351.3,350.6L344.0,350.1L334.4,350.7L330.9,352.1L328.1,353.8L326.6,354.7L322.1,356.5L318.2,355.2L317.3,355.5L316.6,355.5L315.8,355.3L314.7,355.2L314.4,355.7L314.4,356.7L314.3,357.8L313.5,358.3L312.9,359.2L313.3,361.0L314.5,362.4L316.3,362.1L317.9,362.8L320.2,363.0L322.4,362.8L323.9,362.1L326.9,364.4L328.5,365.4L330.3,366.0L329.9,366.9L329.7,367.8L329.9,368.5L330.3,369.2L329.0,369.4L327.3,370.2L325.2,370.5L324.9,370.8L324.9,371.4L324.6,372.3L326.9,373.7L328.1,374.2L329.6,374.3L328.8,376.4L328.5,377.8L328.9,379.2L329.6,381.2L328.4,381.2L328.6,383.3L329.0,384.1L331.0,384.7L334.7,387.0L335.4,386.3L338.8,389.0L339.3,389.1L339.7,389.2L340.5,389.5L342.3,390.7L343.3,391.2L344.6,391.4L346.8,390.3L346.7,387.8L345.0,385.4L342.3,384.4L342.3,383.8L343.9,382.8L345.6,382.2L350.4,381.9L351.3,383.0L350.9,385.5L349.6,388.1L348.1,389.5L349.0,390.3L350.0,390.8L351.2,391.2L352.5,391.4L352.5,392.1L350.7,392.6L350.0,392.7L350.0,393.3L350.7,393.3L351.5,393.6L353.9,393.9L355.9,395.0L357.8,395.5L362.2,398.4L361.7,398.9L361.5,399.0L361.7,399.2L362.2,399.7L362.2,400.3L360.3,401.1L354.8,402.6L354.4,402.6L343.4,403.1L341.7,402.9L341.9,403.2L342.0,403.5L342.1,403.8L342.3,404.1L339.0,403.8L337.7,403.9L337.9,404.8L334.7,405.4L334.7,406.3L335.4,406.7L336.3,406.8L337.3,406.7L336.7,407.4L336.7,407.9L337.4,408.0L339.2,408.6L337.7,409.2L336.0,409.3L332.5,409.2L330.6,409.5L330.6,410.3L331.4,411.5L332.2,413.0L330.3,413.3L329.0,413.3L327.8,413.0L326.5,412.4L326.5,411.7L328.4,411.7L328.4,411.1L327.3,410.9L326.0,411.1L324.8,411.0L323.9,409.9L325.8,410.5L325.4,409.7L324.7,409.0L322.7,407.9L322.0,408.5L321.0,408.6L320.1,408.1L320.1,407.9L319.8,405.0L320.1,403.9L321.1,404.5L322.2,404.9L323.1,404.3L323.8,403.0L323.9,401.6L326.0,402.5L326.5,402.9L326.5,402.3L326.0,401.4L325.9,400.9L325.8,400.0L325.6,399.5L325.0,399.2L324.3,399.1L323.7,398.7L322.4,398.2L319.1,398.9L317.6,398.4L318.9,397.8L317.6,395.9L315.3,397.0L314.4,397.6L313.8,398.4L312.5,395.1L311.5,393.9L310.0,392.7L309.5,392.6L308.5,392.7L308.0,392.7L307.7,392.4L307.5,391.9L307.5,391.6L307.4,391.4L306.0,390.9L305.2,390.8L304.2,390.8L305.4,391.1L305.8,391.4L306.1,392.1L304.3,391.4L302.7,391.6L301.2,392.3L299.8,393.3L299.1,392.7L296.6,391.4L296.8,391.0L297.2,390.1L296.0,389.7L294.9,389.0L294.4,388.3L294.6,387.6L293.7,386.4L292.7,385.7L290.7,386.4L289.0,387.2L287.9,388.5L287.6,390.8L287.8,391.3L288.7,392.4L288.9,393.0L288.8,393.6L288.3,394.7L288.3,395.2L288.7,396.2L289.2,396.8L289.7,397.2L290.1,397.8L290.2,398.2L290.1,400.0L290.4,400.3L291.5,401.0L291.4,402.0L290.8,403.2L290.9,404.1L295.7,408.8L296.6,409.2L295.9,410.5L297.2,410.5L297.2,411.1L296.6,411.1L296.6,411.7L297.5,412.5L299.8,415.7L300.4,417.4L303.6,421.9L303.9,422.2L304.7,423.1L305.1,424.1L304.5,424.5L304.1,425.1L303.8,426.3L303.6,428.7L304.3,429.8L306.1,430.2L308.0,430.0L309.3,429.6L309.3,430.0L309.5,430.3L309.7,430.5L310.0,430.9L309.3,431.2L309.4,431.3L310.0,431.5L309.3,432.2L310.9,432.7L311.6,433.4L311.4,433.9L310.0,433.4L310.8,435.1L313.3,438.0L313.2,439.1L313.9,440.7L314.4,442.3L313.9,442.3L312.9,442.4L312.5,442.3L312.7,442.8L313.4,443.8L313.8,444.2L314.0,443.9L314.0,443.8L314.1,443.8L314.4,443.6L314.7,444.5L314.9,445.3L314.8,446.0L314.4,446.8L315.4,448.0L317.2,451.7L317.9,452.5L317.6,453.3L318.8,454.9L321.4,457.0L322.0,458.0L322.2,459.0L321.9,459.8L320.8,460.1L320.8,460.7L321.8,460.8L322.5,460.9L323.9,461.4L323.5,462.1L322.5,462.8L322.1,463.3L322.0,463.8L322.0,464.1L322.0,464.4L322.1,464.9L321.6,465.9L320.4,465.8L319.1,465.2L318.2,464.6L317.4,465.6L316.2,466.6L315.7,467.5L317.0,468.4L316.8,468.7L316.5,469.4L316.3,469.7L318.9,469.7L316.5,471.3L316.6,473.7L318.0,476.2L319.8,478.5L320.8,480.2L321.2,480.5L323.1,481.1L324.1,481.8L325.8,482.4L326.2,482.8L326.5,483.3L326.8,483.6L327.7,483.7L326.9,484.2L326.5,484.4L326.5,484.9L327.0,485.5L327.1,485.9L326.7,486.4L325.8,486.8L327.4,488.7L330.2,490.1L332.2,491.6L331.5,493.8L328.4,492.5L327.4,493.5L326.3,493.7L322.1,492.8L321.3,491.8L320.6,490.8L319.5,490.0L319.5,489.4L320.0,488.2L319.4,486.7L318.1,485.5L316.6,484.9L312.7,485.7L310.8,485.7L310.0,484.6L309.5,483.1L307.5,479.5L306.8,478.6L305.7,477.8L301.7,475.4L303.0,474.3L302.6,473.2L298.7,470.4L298.2,470.2L297.8,470.9L296.6,472.2L296.1,471.7L296.0,470.9L296.6,468.7L296.3,467.3L295.5,465.3L294.8,461.9L293.5,460.3L291.5,459.3L288.9,458.9L284.1,458.8L278.3,459.4L274.1,461.3L274.2,465.2L271.2,467.0L270.0,468.3L269.2,470.3L270.6,470.3L271.5,471.0L271.9,472.1L271.8,473.5L271.1,473.5L271.0,472.9L270.6,472.2L270.0,471.7L269.2,471.6L268.5,472.1L268.0,473.0L267.8,473.8L268.2,474.2L269.8,475.2L269.3,477.1L268.1,478.0L267.3,476.0L266.0,476.7L265.4,477.6L265.4,483.1L265.6,485.2L266.2,487.0L268.0,490.6L267.6,491.2L268.0,492.0L266.7,492.6L266.3,493.6L266.6,494.7L267.3,495.8L267.3,496.4L266.5,496.3L266.2,496.6L266.2,497.1L266.1,497.7L265.0,496.6L264.7,495.0L264.6,493.3L264.1,492.0L262.7,491.0L259.5,490.0L258.4,488.7L257.8,488.7L256.8,489.5L255.9,489.4L255.0,488.6L254.3,487.8L253.4,486.4L253.5,485.4L254.0,484.4L254.6,483.1L256.1,483.4L256.5,482.3L256.1,480.8L255.2,479.9L255.6,479.4L256.5,478.0L254.6,478.0L254.8,476.8L254.6,475.4L254.9,474.3L256.5,474.2L256.5,473.5L254.7,473.0L254.9,471.4L256.5,468.4L253.8,468.8L252.0,466.5L250.5,463.6L248.8,462.0L249.0,460.2L247.5,457.8L241.0,450.6L239.0,449.8L236.7,451.2L234.3,449.7L233.3,448.8L232.8,447.4L233.1,447.5L233.5,446.9L234.0,446.1L234.2,445.2L234.3,444.1L234.7,442.3L234.9,439.8L234.7,439.1L228.4,438.0L224.9,437.8L223.2,438.2L219.7,440.0L216.2,440.8L215.2,441.7L214.6,443.0L213.7,451.8L213.2,453.0L213.2,453.8L213.6,454.9L214.1,455.7L214.4,456.5L213.8,457.6L215.4,458.8L216.4,459.4L217.7,459.5L217.7,460.1L216.4,460.2L215.4,460.6L214.8,461.2L215.1,462.0L214.5,462.8L210.6,465.7L210.1,466.2L209.5,466.5L208.8,466.5L207.2,463.9L206.8,463.6L204.0,458.9L202.3,459.0L200.9,459.2L198.5,460.1L197.4,459.2L195.3,458.5L194.7,457.6L194.1,457.6L193.3,458.0L192.8,457.3L192.3,456.1L191.5,455.1L191.9,454.2L191.8,453.4L191.6,452.5L191.5,451.2L191.8,450.4L193.0,448.8L193.5,448.0L193.5,446.4L192.8,445.1L191.5,444.4L189.6,444.9L190.5,444.5L190.8,444.2L190.9,443.6L190.1,443.6L189.6,443.8L189.0,444.9L188.4,441.6L186.0,439.2L183.2,436.9L181.3,434.0L180.5,430.3L180.3,426.6L180.9,423.2L182.6,420.7L188.4,416.9L190.9,414.7L192.2,411.7L191.8,408.0L190.9,405.9L190.2,404.3L184.0,394.7L180.4,390.5L178.7,389.0L170.6,384.4L168.7,383.7L167.7,382.8L165.9,380.9L164.9,380.3L159.5,379.0L157.6,379.4L157.2,381.9L156.6,381.9L156.4,381.0L156.4,380.1L156.2,379.2L155.3,378.7L156.5,376.8L156.8,375.2L156.5,373.7L155.0,369.5L154.0,368.2L152.7,367.4L148.7,365.7L138.9,363.4L138.1,362.8L137.6,361.7L137.9,360.3L137.4,359.6L140.0,353.2L140.6,353.2L142.8,354.8L146.9,353.3L150.9,350.5L153.3,348.2L154.6,348.5L155.8,347.9L156.8,347.0L157.8,346.3L157.8,345.6L157.5,345.4L157.4,345.3L157.4,345.2L157.2,345.0L156.3,345.3L155.4,345.8L154.6,346.3L154.0,346.8L158.2,341.8L158.3,341.2L161.7,337.0L162.1,336.0L162.3,334.8L162.5,329.3L162.3,327.8L163.3,328.6L164.6,330.3L165.5,331.0L165.4,329.9L165.2,329.0L164.8,328.3L165.3,328.9L166.6,329.5L168.3,329.6L170.3,329.7L171.6,330.1L176.2,332.8L183.6,334.2L185.4,333.9L187.2,333.2L190.2,331.6L192.7,329.2L196.4,323.2L198.5,320.8L205.6,317.3L206.5,316.6L212.6,317.6L214.6,317.6L215.5,317.4L216.4,317.0L217.2,317.6L218.4,318.2L219.8,318.7L221.2,318.8L222.3,319.2L222.9,320.0L223.3,321.1L224.0,322.1L225.0,322.7L227.8,323.8L228.8,324.0L229.5,323.9L230.5,323.4L231.0,323.4L231.8,324.0L232.4,324.5L233.2,324.6L233.8,325.1L234.8,327.5L235.4,328.5L236.2,328.8L239.6,329.7L239.9,329.9L240.2,330.3L240.7,330.8L241.5,331.0L244.4,331.0L248.4,331.8L249.5,332.3L251.2,331.6L252.7,332.4L254.2,333.6L257.1,334.5L258.0,335.1L259.0,335.5L260.0,335.1L260.7,335.0L268.0,336.2L278.1,340.5L283.7,342.1L284.4,342.8L285.3,343.0L292.7,348.2L294.4,350.4L295.0,350.7L296.7,351.1L299.6,353.1L301.0,353.9L302.4,354.1L303.9,353.8L306.1,353.2L306.8,353.2L307.6,353.3L308.3,353.2L309.0,353.0L310.8,350.7L311.0,350.2L310.1,349.1L308.8,348.0L307.7,347.5L306.3,347.2L304.0,345.7L302.3,345.6L302.6,345.3L302.9,345.1L299.8,345.0L301.8,343.7L302.7,343.2L303.9,343.0L305.1,342.7L307.2,341.0L308.0,340.5L310.5,340.6L315.1,342.2L317.0,341.8L319.7,342.8L322.7,342.5L329.4,340.9L331.0,339.5L332.5,339.2L333.5,338.7L332.9,337.5L331.4,336.5L329.6,336.1L329.6,335.6L329.6,334.8L330.8,334.7L332.9,334.3L334.1,334.2L334.1,333.5L333.2,333.4L326.7,332.7L325.3,332.3L327.2,331.0L324.7,328.9L323.5,328.7L320.5,331.0L319.5,331.2L316.3,331.0L316.3,330.4L318.2,330.4L316.9,328.9L315.7,328.1L314.3,327.8L308.9,327.3L307.2,327.6L306.1,329.0L307.4,328.7L308.7,328.8L309.9,329.3L310.5,330.4L308.9,330.3L306.1,329.9L304.9,330.4L303.6,325.9L302.9,325.9L302.3,327.2L302.1,326.7L301.9,326.3L301.7,325.9L300.0,326.3L296.6,326.6L295.3,327.2L291.5,325.2L292.3,324.3L293.9,323.1L294.6,322.1L292.9,321.5L289.4,320.7L287.3,319.4L285.7,319.1L285.1,318.8L284.7,318.3L283.2,316.4L284.0,314.7L282.7,312.8L280.5,312.0L278.7,313.8L280.3,313.9L280.5,314.7L279.6,315.2L278.4,314.7L277.3,314.5L276.3,315.2L275.4,316.3L275.0,317.0L275.0,317.6L275.5,317.8L275.7,318.0L276.1,318.1L276.8,318.3L276.8,318.8L276.1,319.2L276.0,319.4L276.2,319.6L276.2,320.2L275.1,321.0L274.0,321.3L272.7,321.0L271.1,320.2L271.1,319.9L270.0,318.3L269.9,318.3L269.6,317.7L269.3,317.5L269.5,317.2L270.5,317.0L269.2,314.9L264.8,310.6L264.0,309.1L263.5,308.7L263.1,308.5L262.1,308.3L257.8,306.1L257.9,307.1L258.3,308.8L258.4,309.7L255.9,311.2L255.2,311.9L255.8,312.6L256.3,313.0L256.7,312.9L257.1,312.5L257.5,313.3L257.3,314.1L256.7,314.6L255.9,315.0L256.5,315.7L256.0,316.4L254.6,316.5L252.8,316.0L250.4,315.7L246.9,316.0L246.4,315.5L245.2,315.0L243.9,314.7L243.1,315.0L242.5,315.0L241.3,314.8L239.9,315.5L238.7,316.7L238.0,318.3L237.3,317.6L236.7,316.4L236.1,315.7L235.3,315.4L234.5,315.5L234.0,315.4L234.2,314.4L232.8,313.6L229.8,312.9L225.0,311.3L223.2,311.2L221.5,311.9L219.3,310.1L216.5,310.0L213.9,310.8L210.1,313.0L209.2,313.2L207.8,313.2L207.1,312.9L206.6,312.2L206.2,311.5L205.6,311.2L204.8,311.4L200.2,314.5L199.5,315.5L199.2,317.3L198.4,317.8L196.6,316.9L194.1,315.0L188.7,315.0L187.2,315.3L185.8,315.9L184.6,316.2L183.3,315.7L177.3,319.1L176.2,320.8L175.7,320.8L174.8,320.2L173.5,320.0L172.3,319.9L171.8,319.8L171.2,319.2L167.4,317.6L168.9,317.2L170.4,317.9L171.8,318.9L173.1,319.5L173.1,318.8L172.6,318.4L172.4,318.1L172.5,317.7L173.1,317.0L172.2,316.5L171.8,316.4L171.8,315.7L172.2,315.5L173.1,315.0L171.2,315.0L171.8,313.8L170.9,314.1L170.2,314.2L169.4,314.1L168.7,313.8L168.1,314.1L167.8,314.3L166.8,314.4L167.4,312.6L166.2,311.7L164.3,311.3L162.6,311.2L161.9,310.4L161.0,304.8L159.1,303.0L158.0,302.3L157.5,302.2L157.1,302.3L156.2,302.3L156.6,303.1L160.4,308.1L159.1,308.1L159.3,308.4L159.3,308.5L159.5,308.5L159.8,308.7L159.4,309.6L159.2,310.7L158.8,311.5L158.2,311.9L157.2,312.0L155.2,312.8L154.6,313.2L154.8,313.6L154.9,313.6L155.3,313.8L154.6,314.4L153.4,313.8L152.6,314.1L152.3,314.7L152.4,315.0L152.9,315.3L152.2,316.0L150.8,317.0L149.8,317.5L149.2,317.7L147.3,317.6L146.6,317.2L145.9,316.7L145.2,316.6L144.4,317.6L144.9,317.9L145.5,318.2L146.1,318.3L145.7,318.4L144.6,318.6L143.8,319.2L143.8,320.2L142.0,320.0L141.4,319.1L141.1,317.9L140.6,317.0L139.5,316.7L136.7,316.6L135.5,316.4L136.6,316.0L137.4,315.5L137.7,314.8L137.4,313.8L136.5,314.2L136.2,314.4L137.0,313.0L137.4,312.5L137.2,313.1L138.1,313.5L139.2,313.0L140.0,312.2L140.6,311.2L138.9,310.2L138.2,310.2L137.4,311.2L136.4,310.8L135.6,310.1L135.2,309.2L134.9,308.1L135.2,307.9L135.3,307.9L135.3,307.8L135.5,307.4L136.4,308.3L137.5,308.7L138.4,308.5L138.7,307.4L137.4,308.1L137.9,306.8L137.0,305.1L137.4,304.2L137.4,303.6L136.6,303.6L135.9,303.4L134.9,303.0L135.8,302.6L136.2,302.4L136.8,302.3L136.4,302.2L135.9,301.8L135.5,301.7L136.4,300.2L136.6,299.4L136.5,298.9L135.6,298.4L134.9,298.8L134.2,299.4L133.3,299.7L133.0,300.1L132.0,300.8L130.9,301.2L130.4,300.8L130.2,299.9L129.3,298.6L129.1,297.6L129.9,293.8L129.9,291.8L127.9,290.1L126.5,286.6L125.6,285.8L122.0,285.8L120.8,285.4L119.6,284.5L119.0,283.4L116.7,275.9L115.8,274.4L114.6,273.6L113.2,274.0L111.8,275.1L110.7,276.4L110.1,277.4L109.4,276.4L108.8,276.6L108.2,277.1L107.5,276.9L106.5,277.6L106.1,277.2L106.0,276.4L105.6,275.7L102.4,273.6L102.4,273.1L103.1,271.9L103.6,270.2L104.3,268.7L106.0,268.0L108.0,268.1L109.0,268.0L109.5,267.7L109.2,267.1L108.5,266.6L107.7,266.2L105.7,265.4L104.9,264.0L104.7,262.4L105.0,261.0L106.2,259.2L106.7,259.9L107.3,261.4L108.8,262.2L110.6,262.7L112.3,262.0L113.6,260.6L114.6,259.1L115.2,259.1L115.5,259.8L115.6,260.3L115.5,260.7L115.2,261.0L115.4,261.1L115.6,261.3L115.7,261.6L115.2,262.2L117.1,262.3L118.6,262.1L119.8,261.3L120.2,259.6L120.8,259.6L121.7,260.6L122.7,260.6L123.8,260.3L125.3,260.3L126.5,260.7L127.4,261.2L128.5,261.5L130.1,261.7L130.4,262.2L130.1,263.6L129.9,264.9L130.7,265.5L132.0,265.7L133.2,266.3L135.5,268.0L135.6,267.2L135.8,266.7L136.2,266.4L136.8,266.0L136.8,265.5L136.1,264.3L137.1,263.7L138.8,263.7L140.3,264.4L142.5,266.5L142.5,266.7L143.1,267.0L143.6,267.1L144.1,266.9L144.4,266.0L143.7,265.5L143.3,265.1L143.1,263.7L142.7,263.6L142.3,263.7L141.9,263.4L140.7,261.8L140.6,260.8L141.2,259.6L140.8,258.9L141.0,258.1L141.7,257.6L142.5,257.8L142.4,255.6L140.2,253.2L135.5,249.6L134.8,250.1L134.5,250.8L134.5,251.4L134.9,252.0L133.6,251.6L133.2,251.8L132.7,251.9L131.0,253.4L133.0,254.6L127.9,254.0L127.9,253.4L126.7,253.1L125.6,252.5L124.8,251.9L124.4,251.7L123.3,252.2L122.4,251.8L121.8,251.0L121.5,250.1L121.7,250.1L122.0,249.7L122.8,249.6L122.8,248.9L122.1,248.9L121.2,249.4L120.2,249.4L119.2,249.0L118.4,248.2L117.7,248.2L117.2,249.2L115.5,249.9L115.2,250.5L115.6,251.4L116.6,251.6L117.0,252.0L113.2,252.0L114.6,251.5L114.4,250.8L114.4,249.9L114.1,249.3L113.3,249.6L113.3,249.2L113.2,249.0L113.2,248.8L113.3,248.7L113.3,248.2L112.5,248.1L112.0,248.3L111.7,248.6L111.4,248.9L112.5,246.9L112.2,245.3L111.1,244.8L110.1,245.7L109.5,245.1L109.1,245.7L108.6,246.2L107.8,246.6L106.9,247.0L106.9,247.7L108.2,247.9L107.9,248.7L107.8,249.7L107.5,250.8L106.8,251.5L106.1,251.9L105.4,252.4L105.0,253.4L103.7,252.7L103.8,253.6L103.9,254.0L104.3,254.1L105.0,254.0L109.4,256.8L111.2,257.5L111.7,258.1L112.0,258.8L111.7,259.1L110.9,258.9L109.2,258.1L106.5,257.4L105.9,257.5L105.0,257.8L105.0,258.2L104.1,259.3L103.0,260.0L102.4,259.3L102.2,258.5L101.5,257.9L100.8,257.3L100.5,256.8L100.4,256.3L100.2,256.0L100.0,255.8L99.9,255.6L100.1,254.9L100.6,254.6L101.0,254.3L101.2,254.0L100.2,250.9L98.5,248.7L96.0,247.0L93.0,245.7L90.0,243.9L82.8,236.8L80.0,235.3L79.2,234.5L79.5,233.6L79.0,232.8L78.8,231.7L78.9,230.6L79.5,229.8L79.5,229.2L78.4,229.5L77.4,229.7L76.7,229.4L76.3,228.5L75.0,229.1L73.6,229.1L72.4,228.6L71.2,227.8L68.6,228.7L64.9,227.2L61.9,224.4L61.7,221.5L60.4,220.6L59.7,219.4L58.7,218.5L56.6,218.3L56.6,217.7L57.2,217.7L57.2,217.1L56.5,216.4L55.5,214.9L54.7,214.5L56.3,214.1L58.2,214.2L59.5,213.9L59.2,212.6L58.3,211.9L54.7,210.0L54.7,209.4L56.3,209.5L57.5,209.7L58.4,209.7L59.2,208.8L59.2,208.2L58.2,207.6L56.6,207.0L55.3,207.0L55.4,208.2L54.5,207.6L53.5,207.1L52.4,207.0L53.4,206.2L51.7,205.9L50.1,205.7L48.6,205.8L47.1,206.2L47.8,205.5L48.2,204.6L48.4,203.6L48.3,202.4L49.0,203.0L49.6,203.0L50.3,202.5L50.9,201.8L50.9,201.5L50.9,200.3L50.9,199.9L51.1,199.8L52.0,199.3L52.2,199.3L51.6,197.4L50.0,196.6L48.5,196.2L47.7,195.7L47.4,195.4L46.0,194.4L45.5,194.2L44.4,194.0L43.7,193.6L42.9,192.9L38.8,192.2L36.7,191.5L35.6,191.0L35.1,191.1L34.7,191.0L36.2,190.3L39.3,191.1L43.0,192.0L47.3,193.7L49.9,195.6L51.8,196.2L53.3,196.0L53.6,195.5L53.6,194.8L53.7,194.1L54.4,193.5L55.1,193.3L55.9,193.3L56.7,193.5L57.5,193.8L57.8,191.8L59.2,190.8L61.0,190.0L62.2,188.8L62.5,187.8L62.2,187.3L61.7,186.9L61.4,186.1L61.2,185.8L60.5,185.1L60.3,184.8L60.4,184.5L61.0,183.4L61.1,182.9L60.8,182.2L60.3,181.8L60.0,181.4L60.7,180.7L61.5,180.5L62.4,180.6L62.5,180.6L66.0,181.7L67.6,182.4L69.2,182.6L70.8,181.3L71.6,179.4L71.2,177.8L66.9,172.4L64.7,170.7L64.2,170.1L62.8,164.5L62.4,163.8L63.5,163.5L68.1,163.4L69.7,163.1L70.1,161.5L70.8,159.8L71.9,158.3L73.1,157.2L74.9,156.6L78.0,156.9L79.4,156.2L81.1,155.9L86.0,156.5L88.4,156.3L91.8,155.0L94.2,154.2L94.8,153.8L95.2,153.2L96.6,150.1L96.8,149.7L96.3,148.0L96.3,147.5L96.0,146.5L96.0,145.9L96.5,145.4L97.8,145.1L98.3,144.8L99.4,142.6L99.4,140.7L99.2,138.8L99.6,136.7L100.4,135.8L101.4,135.2L102.4,134.8L103.1,134.3L103.4,133.8L104.8,131.1L105.8,129.6L106.3,128.9L106.6,127.7L106.5,126.8L106.1,124.2L106.3,123.4L107.1,122.7L109.0,122.4L109.9,122.0L110.6,121.1L111.0,120.2L111.5,119.4L112.7,118.7L115.2,118.7L117.3,119.5L119.4,119.9L121.7,118.7L122.6,117.7L122.9,117.2L123.2,116.7L123.1,115.6L123.7,114.7L124.7,114.2L125.9,114.0L126.5,113.0L127.3,112.5L128.2,112.1L128.8,111.6L129.3,110.6L129.5,109.9L129.5,109.1L129.7,108.1L130.7,104.8L131.0,103.1L130.9,101.3L130.3,99.7L129.3,98.4L126.8,96.1L124.2,94.2L123.8,93.5L123.6,92.7L123.3,92.0L122.3,91.5L123.9,90.0L124.5,88.1L124.3,83.7Z"/>
<path d="M418.1,640.3L417.6,641.1L417.5,642.0L417.9,642.9L418.8,643.4L418.8,644.0L416.3,643.9L414.2,642.9L410.5,640.8L410.5,640.3L411.6,640.2L412.4,640.0L413.1,639.5L413.7,639.0L414.9,638.9L416.0,639.1L418.1,639.6L418.1,640.3Z"/>
<path d="M682.6,586.8L685.1,586.2L686.0,586.2L686.1,586.8L685.5,587.1L684.8,587.4L685.5,589.3L685.5,589.9L684.1,589.9L681.9,590.3L681.0,590.6L679.8,591.2L679.0,591.8L678.1,592.3L676.9,592.5L676.1,592.8L674.5,594.1L673.4,594.4L672.2,594.0L671.3,593.1L670.8,592.2L671.1,591.8L672.0,591.5L673.7,589.7L674.3,589.3L674.6,589.0L675.3,587.7L675.6,587.4L676.4,587.5L677.4,588.0L677.8,588.0L681.2,586.9L682.6,586.8Z"/>
<path d="M621.8,597.5L621.0,599.2L619.6,600.4L618.1,601.4L616.7,602.7L618.3,607.5L619.8,609.6L621.8,608.4L620.9,609.9L619.4,611.4L618.4,612.8L619.3,614.2L618.6,615.8L617.7,617.5L616.8,619.0L615.8,620.2L615.3,621.0L614.4,623.2L613.8,623.7L612.8,623.8L611.8,624.2L611.0,624.6L605.6,626.6L604.3,626.9L601.7,626.9L601.6,626.6L600.2,625.4L599.6,625.0L597.4,624.7L595.5,624.9L593.9,624.9L592.2,624.0L591.3,623.4L590.6,623.2L589.8,623.4L589.0,624.0L588.3,624.1L584.9,623.7L581.0,624.3L574.1,626.3L554.9,625.6L549.1,627.1L547.6,627.8L546.1,628.3L537.7,627.4L531.4,627.6L529.6,628.0L527.3,628.2L526.5,628.6L525.1,629.4L519.8,631.1L518.4,631.3L513.1,630.9L511.1,631.3L510.5,631.6L509.7,632.4L509.1,632.6L508.1,632.6L507.5,632.4L507.0,632.1L506.3,632.0L504.6,632.1L503.3,632.3L500.9,633.2L499.4,632.7L497.6,632.5L474.8,633.2L474.8,632.6L476.0,631.8L476.4,630.7L476.1,627.2L476.2,626.1L476.8,624.3L476.7,623.0L476.4,622.0L475.9,620.8L475.2,619.7L474.5,619.2L474.0,619.0L473.5,618.5L472.9,618.1L471.9,617.9L463.7,617.8L461.5,617.4L460.1,616.7L459.5,616.7L458.7,617.0L457.6,616.2L455.7,614.2L454.4,613.4L452.7,612.7L450.9,612.3L449.3,612.9L443.7,610.6L443.6,609.7L443.6,609.1L433.4,609.9L426.4,609.1L426.0,608.8L425.6,608.4L425.2,607.9L425.2,607.8L424.5,607.8L424.0,608.0L423.6,608.3L423.2,608.4L416.6,608.4L414.9,607.8L414.1,607.8L413.7,608.8L413.3,608.7L410.8,609.1L409.1,608.5L406.5,605.8L405.1,605.2L397.1,605.4L393.2,604.9L390.1,603.4L389.3,603.9L388.8,604.1L388.2,604.1L387.6,603.9L386.0,605.0L379.4,604.8L376.8,605.9L375.5,604.8L370.0,605.0L367.9,604.6L367.4,604.1L367.6,603.2L367.2,602.7L366.6,602.4L365.3,602.3L364.7,602.0L363.9,601.4L363.4,600.7L362.7,600.0L361.5,599.5L362.2,598.9L361.8,598.8L361.6,598.8L361.5,598.7L361.5,598.2L362.8,597.7L363.4,597.6L364.1,597.5L364.2,597.3L364.2,597.1L364.2,597.0L364.7,597.0L364.1,596.3L363.7,595.6L363.6,594.8L364.1,593.7L363.4,592.1L364.4,590.0L365.8,587.9L366.6,586.5L366.4,585.9L366.0,585.3L365.5,584.9L365.3,584.9L365.4,584.3L366.4,581.9L367.0,581.1L367.1,580.3L365.9,579.7L365.9,579.2L366.4,578.7L366.5,578.5L366.4,578.3L365.9,577.8L367.3,575.5L367.6,574.4L367.2,573.3L369.1,570.8L369.5,569.9L369.8,571.8L369.8,575.6L370.4,577.2L370.9,578.2L371.3,578.4L372.0,578.5L372.7,578.6L372.8,579.0L372.7,579.4L372.9,579.7L373.7,580.1L374.6,580.3L376.8,580.4L378.6,580.1L380.1,579.2L380.9,577.6L381.2,575.4L380.7,573.6L379.8,571.9L379.5,570.5L380.5,569.5L379.6,567.9L379.4,566.6L379.8,565.4L380.9,564.1L382.2,563.0L383.0,563.1L383.9,563.7L385.7,564.5L385.7,565.2L384.6,566.1L384.7,567.3L385.7,570.2L385.6,572.6L385.7,573.3L387.6,576.3L389.2,577.2L397.1,577.9L399.6,578.5L401.0,578.1L406.3,578.5L408.6,578.5L409.5,578.2L410.4,577.8L410.9,577.2L411.2,576.3L411.6,575.5L412.6,575.2L415.0,575.4L413.8,572.0L416.9,571.0L421.1,571.4L423.2,572.4L425.1,576.5L424.8,577.2L424.4,577.5L423.7,578.7L423.2,579.2L422.3,579.5L421.4,579.7L419.5,579.7L415.8,579.1L413.8,579.0L412.4,579.7L412.9,580.5L414.5,581.4L416.2,582.1L419.0,582.7L422.0,584.5L423.6,584.9L425.2,584.6L426.9,584.0L428.4,583.2L429.7,582.3L430.7,586.6L430.9,588.4L430.7,591.7L430.9,592.5L431.6,592.9L433.5,593.0L434.4,593.5L437.8,594.5L446.0,592.5L449.3,593.2L451.3,592.3L458.8,591.1L461.3,590.5L467.1,588.0L469.1,587.5L471.1,587.2L473.2,587.2L482.4,588.5L484.3,589.3L485.2,588.8L486.8,588.1L489.4,587.4L495.1,589.3L495.7,588.7L496.0,588.5L496.3,588.2L496.4,587.4L500.8,588.3L501.8,589.4L503.5,589.2L504.0,589.3L504.2,589.9L503.9,590.4L503.6,590.9L503.5,591.5L504.2,593.8L506.2,594.8L509.0,595.0L513.3,594.8L516.0,594.3L517.4,594.4L517.7,594.6L518.2,595.0L518.8,595.5L519.7,595.7L522.5,595.7L527.6,595.0L529.9,595.5L531.3,595.6L532.7,595.0L533.3,595.7L534.0,595.0L535.7,596.3L537.0,597.8L538.6,599.0L541.2,599.5L543.9,599.2L558.4,594.7L560.4,594.4L561.5,594.6L563.4,595.5L564.8,595.7L570.3,595.7L569.6,596.9L568.5,598.0L566.4,599.5L567.1,600.1L566.5,600.9L566.4,601.7L566.8,602.3L567.7,602.7L567.6,601.1L568.1,600.3L568.8,600.4L569.6,601.4L569.1,602.0L569.1,602.3L569.6,602.7L569.1,603.4L568.6,603.0L568.3,602.9L567.8,603.2L567.1,603.9L567.4,604.8L566.6,605.8L565.9,607.2L566.4,609.1L565.3,609.8L565.4,610.7L566.0,611.6L566.4,612.6L566.8,614.4L567.7,614.7L569.0,614.5L570.6,615.1L571.8,615.9L573.0,616.1L575.0,616.1L576.2,615.5L577.8,612.8L578.9,612.2L579.7,612.2L580.2,612.1L581.1,611.6L582.3,609.9L582.4,609.7L583.5,609.4L586.5,609.3L590.0,608.7L590.6,608.4L593.5,606.9L594.4,606.2L595.1,605.9L595.9,605.7L596.6,605.8L597.1,605.7L597.6,605.2L598.2,605.2L599.5,606.1L603.1,606.8L602.0,607.8L604.0,608.6L606.4,608.4L608.6,607.6L610.3,606.5L609.9,606.3L609.9,606.2L609.7,605.9L612.3,603.9L614.1,601.9L616.1,600.4L619.3,600.1L618.6,598.9L619.6,598.9L619.9,598.9L619.7,598.6L619.5,597.9L619.3,597.5L621.8,597.5Z"/>
<path d="M704.5,578.5L706.5,580.0L706.9,581.0L706.4,583.0L704.1,582.5L701.7,583.3L699.9,585.0L699.4,587.4L699.6,587.1L699.8,586.9L700.1,586.7L700.7,586.8L700.3,587.5L699.5,588.2L698.6,588.9L697.5,589.3L698.1,587.8L697.4,587.2L696.1,587.1L695.0,586.8L694.1,585.9L693.5,584.9L693.6,584.0L695.0,583.5L695.0,583.0L694.3,583.0L694.3,582.3L695.9,582.0L696.0,581.0L695.0,578.5L695.0,577.2L695.3,576.3L695.4,575.7L695.0,574.7L694.2,574.2L691.8,572.9L691.2,572.1L691.3,570.9L692.0,569.6L692.8,568.7L693.4,568.3L695.6,567.2L696.3,564.8L696.7,562.4L699.2,560.2L699.9,557.5L699.9,554.6L699.4,553.1L699.4,552.4L700.7,551.7L701.4,551.7L701.4,552.4L702.0,552.4L702.5,551.9L703.9,550.5L704.7,549.9L705.4,549.8L705.9,550.0L706.4,550.5L706.1,551.7L704.8,553.5L704.5,554.6L704.5,556.9L704.7,557.7L705.1,558.6L705.2,559.4L704.6,560.1L703.6,560.9L702.5,562.1L702.0,563.5L701.6,564.3L700.7,565.2L699.8,566.3L699.4,568.0L699.4,569.4L699.6,570.0L702.0,571.5L704.2,574.8L704.9,575.4L705.4,575.7L705.0,576.3L704.3,576.9L703.9,577.2L703.8,577.8L703.8,577.9L703.9,577.9L704.5,578.5Z"/>
<path d="M314.4,505.3L320.5,508.8L322.1,510.3L323.0,511.9L322.4,512.3L321.0,512.4L319.5,512.9L318.8,513.9L318.4,515.1L318.2,520.5L317.7,520.7L316.3,520.6L314.7,520.2L313.6,520.4L312.5,521.2L312.2,519.9L311.2,519.3L308.6,518.6L308.5,518.4L308.6,518.0L308.7,517.6L308.3,517.4L307.0,517.5L306.8,517.4L306.3,516.8L305.4,515.3L304.9,514.8L305.7,509.6L305.5,507.5L304.9,505.3L304.3,504.3L304.0,503.5L304.2,502.6L307.1,498.6L308.2,497.8L309.3,498.4L313.0,503.9L314.4,505.3Z"/>
<path d="M567.4,498.4L568.7,498.0L569.6,497.2L570.4,496.7L573.7,497.8L576.7,500.0L578.5,500.2L577.7,501.4L576.9,501.3L576.0,500.6L575.0,500.2L573.6,500.4L572.4,500.9L571.2,501.1L568.8,500.7L568.4,500.7L568.1,500.6L567.5,500.0L567.1,499.3L566.9,498.7L567.4,498.4Z"/>
<path d="M800.0,493.8L798.7,495.2L799.7,499.3L797.8,500.2L797.3,500.8L796.8,504.0L796.1,505.0L794.0,507.0L793.6,508.2L793.4,510.8L792.9,511.9L792.1,512.4L791.5,513.0L790.4,515.8L789.9,516.7L789.6,516.7L788.0,516.6L787.3,516.7L787.1,517.1L786.9,517.8L786.6,518.4L785.7,518.6L783.5,523.1L784.3,523.7L785.0,524.0L785.8,524.2L786.7,524.4L786.4,525.1L786.1,525.8L785.5,526.4L784.8,526.9L785.2,527.3L786.1,528.8L781.2,527.6L779.3,527.6L777.1,528.2L772.9,530.3L771.4,531.6L767.7,536.6L765.1,539.4L761.7,542.0L757.3,544.2L753.5,542.0L752.9,541.8L752.7,541.2L751.0,538.4L752.2,537.0L754.9,530.5L755.4,528.2L755.2,526.1L754.2,525.0L752.9,524.2L750.7,522.2L750.5,521.7L751.1,521.0L751.0,520.6L750.1,520.0L749.5,520.1L749.0,520.1L748.4,519.3L749.9,518.8L753.5,516.7L755.8,516.1L756.6,515.6L756.1,514.8L756.9,514.3L757.1,513.8L757.1,513.2L757.3,512.4L758.0,511.2L758.6,510.3L759.5,508.9L759.9,508.5L762.6,507.9L763.1,507.5L763.7,506.7L766.8,504.1L767.5,503.1L768.4,502.4L773.9,500.8L784.3,496.3L785.7,495.5L788.7,494.3L794.8,494.6L797.6,491.7L798.4,491.6L799.2,492.2L800.0,493.2L800.0,493.8Z"/>
<path d="M534.6,489.4L537.9,490.3L541.1,492.2L543.6,494.6L544.7,497.0L544.5,498.9L543.7,500.7L542.3,502.2L540.6,502.7L538.7,502.6L534.4,501.6L532.7,500.8L533.8,500.4L536.0,500.4L537.1,500.2L538.0,499.6L538.9,498.2L539.7,497.7L539.0,495.2L538.6,494.3L537.8,493.8L537.8,493.2L538.3,492.1L536.9,491.4L533.3,490.6L533.3,490.0L533.7,489.8L534.2,489.6L534.6,489.4Z"/>
<path d="M721.7,493.2L720.8,494.9L722.0,495.9L723.9,496.0L725.6,495.1L725.9,495.4L726.0,495.7L726.2,496.4L725.6,497.3L724.6,498.2L723.5,498.7L722.4,498.4L721.9,498.8L721.1,498.4L720.0,498.5L718.7,497.4L718.0,495.9L718.5,494.5L717.3,493.9L716.3,494.2L715.4,494.9L714.7,495.8L714.1,495.8L713.6,495.0L712.4,494.3L712.2,493.5L712.3,491.7L712.4,490.8L712.8,490.0L713.7,491.5L715.0,491.1L716.6,490.0L717.9,489.4L719.1,490.1L720.3,492.7L721.7,493.2Z"/>
<path d="M625.6,474.7L628.5,474.9L632.0,476.5L634.6,478.6L635.3,479.9L634.7,480.3L634.2,480.4L633.8,480.1L633.3,479.2L631.9,480.2L630.6,480.6L627.9,480.5L626.6,480.8L625.7,481.6L624.4,483.7L624.3,484.9L624.4,486.1L623.7,486.7L621.5,486.8L619.9,486.3L618.2,483.8L616.7,483.1L616.9,482.4L617.0,482.2L617.4,481.8L616.5,480.7L616.3,479.4L616.7,478.6L618.0,479.2L619.3,478.6L620.9,479.4L622.5,480.5L623.7,481.1L624.6,480.8L625.5,479.5L626.0,479.2L627.0,479.3L627.8,479.5L628.6,479.6L629.5,479.2L628.2,478.7L627.7,477.8L628.1,477.0L628.1,476.7L627.1,476.5L626.3,476.0L625.6,475.4L625.6,474.7Z"/>
<path d="M765.6,479.2L765.7,480.3L765.9,481.1L766.3,481.8L765.4,482.3L765.0,482.4L765.5,482.6L765.9,482.9L766.1,483.2L766.3,483.7L764.2,484.7L763.2,484.9L761.8,484.9L761.8,484.4L762.3,484.1L763.1,483.5L763.7,483.1L759.7,482.0L758.5,481.3L759.9,480.5L755.4,480.5L756.1,479.6L757.1,478.7L757.9,477.7L758.0,476.7L758.5,476.7L758.7,476.5L759.3,476.0L759.3,476.7L760.8,475.1L763.1,474.1L764.8,473.9L765.0,474.7L762.4,475.4L761.2,476.0L760.6,477.3L761.4,477.1L761.8,477.0L762.5,478.0L765.6,476.0L765.9,476.3L765.9,476.4L766.0,476.5L766.3,476.7L765.8,477.0L765.5,477.4L765.2,477.7L765.0,478.0L765.6,477.6L766.0,477.7L765.9,478.3L765.6,479.2Z"/>
<path d="M486.8,472.2L494.3,476.0L495.7,478.0L495.7,478.6L493.3,478.5L491.9,478.0L489.4,476.0L487.9,475.2L486.4,474.7L485.1,473.9L484.3,472.2L486.2,472.1L486.8,472.2Z"/>
<path d="M512.7,467.1L516.3,467.2L516.1,467.4L516.0,467.9L516.1,468.4L511.1,472.6L507.7,474.9L505.4,474.7L508.8,469.0L509.9,468.7L511.8,467.4L512.7,467.1Z"/>
<path d="M450.3,464.6L453.8,463.0L455.8,462.7L456.9,464.0L456.7,465.0L456.9,470.0L456.1,470.7L454.4,471.4L451.2,472.2L440.1,472.4L436.6,473.5L436.2,472.2L437.0,470.2L436.6,469.0L437.0,468.8L437.4,468.2L437.9,467.8L437.0,467.3L436.6,467.1L437.5,466.4L438.2,464.7L439.1,464.0L439.6,464.5L440.2,465.0L440.9,465.4L441.7,465.9L442.9,465.6L444.0,468.3L445.8,469.0L449.0,469.0L450.0,468.6L449.7,467.6L448.9,466.5L448.1,465.9L446.8,466.4L445.9,465.8L445.1,464.8L444.2,464.0L444.2,463.3L445.2,462.4L446.5,462.9L448.0,464.0L450.3,464.6Z"/>
<path d="M524.4,467.1L524.7,466.9L524.8,466.9L524.9,466.8L525.1,466.5L524.3,466.6L522.5,466.5L523.0,465.6L523.5,464.4L523.7,463.2L523.5,462.7L527.6,460.1L528.8,461.4L530.3,463.6L531.4,464.6L533.1,465.3L534.7,465.7L536.2,466.4L537.1,467.8L536.0,468.0L535.3,468.6L535.3,469.5L535.8,470.3L535.8,470.9L533.8,473.3L530.5,471.9L524.4,467.1Z"/>
<path d="M462.7,456.3L462.7,457.0L462.0,457.6L459.4,461.4L457.9,461.5L456.3,461.1L455.7,460.4L455.4,459.3L454.9,458.7L454.6,458.1L455.1,457.0L455.8,456.3L457.0,455.7L458.4,455.4L459.5,455.7L460.1,456.1L460.6,456.3L461.2,456.2L462.0,455.7L462.2,456.0L462.2,456.1L462.2,456.3L462.7,456.3Z"/>
<path d="M710.9,449.7L711.9,451.2L716.5,452.1L717.9,453.8L714.9,455.2L704.7,457.5L702.6,458.5L696.9,463.3L695.0,463.6L692.6,463.3L690.4,462.7L689.3,462.0L684.1,464.0L682.6,465.2L683.6,467.1L682.2,467.5L681.7,468.5L681.7,469.7L682.3,470.9L680.7,470.7L679.0,469.6L677.7,468.4L677.2,467.5L677.4,464.2L678.0,462.9L679.1,463.3L679.5,462.8L680.6,461.9L681.0,461.4L681.5,461.7L683.6,462.7L684.8,461.7L685.5,460.8L686.8,458.9L690.0,456.6L690.5,456.0L700.1,451.2L709.5,450.0L710.9,449.7Z"/>
<path d="M592.5,446.8L593.7,448.1L595.3,449.2L597.0,450.1L598.9,450.6L598.9,451.0L598.8,451.1L598.5,451.1L598.2,451.2L596.6,450.7L594.9,451.0L593.5,451.4L592.5,451.2L591.1,452.3L587.2,454.6L585.9,455.1L584.7,455.9L582.1,459.4L580.8,460.1L573.3,462.2L569.3,462.5L567.7,460.1L569.1,460.7L569.8,459.8L571.0,459.0L572.4,458.8L573.4,459.5L574.1,459.5L574.7,459.0L575.5,458.9L577.6,458.9L578.0,458.5L579.3,456.3L578.2,456.8L577.6,456.3L577.5,455.5L577.6,455.1L578.7,454.9L589.4,450.6L589.4,450.0L588.8,449.8L588.5,449.6L588.1,449.4L587.4,449.3L587.4,448.7L590.0,448.1L591.1,447.5L591.8,446.8L592.5,446.8Z"/>
<path d="M506.6,445.5L505.3,445.3L503.5,444.0L501.9,442.1L501.5,440.4L502.4,439.1L504.0,437.9L505.9,437.2L507.3,437.2L505.6,442.1L504.7,443.6L505.2,444.0L505.8,444.5L506.6,445.5Z"/>
<path d="M471.6,437.8L472.7,439.2L476.0,442.4L477.2,445.1L477.3,445.8L477.1,446.2L475.7,446.7L475.4,447.1L472.2,450.0L470.8,448.2L469.3,445.6L468.4,443.1L469.0,441.7L469.0,441.1L468.1,440.4L467.0,438.9L465.9,438.5L465.9,438.1L466.0,437.8L466.6,437.2L466.2,437.1L466.0,437.1L465.9,437.0L465.9,436.6L467.1,436.6L469.3,438.1L470.2,438.4L471.0,437.8L471.6,437.8Z"/>
<path d="M676.6,446.1L677.4,444.9L677.9,444.5L678.5,444.2L677.9,442.8L678.3,441.7L679.2,440.7L679.8,439.8L680.0,439.6L680.3,439.1L680.6,438.5L680.4,437.8L679.6,437.3L678.8,437.4L678.2,437.7L677.8,437.8L677.2,437.2L676.7,436.8L675.9,435.3L675.2,434.7L674.5,434.5L674.2,434.1L674.6,432.8L675.7,433.9L683.6,436.6L683.6,437.2L682.3,437.2L683.2,438.4L684.4,439.0L685.4,439.6L685.5,441.1L686.3,440.3L687.1,439.9L687.9,440.0L688.7,440.4L689.0,441.5L688.3,443.1L688.7,444.2L688.2,444.8L688.1,445.1L688.0,445.5L688.7,445.5L688.7,444.9L689.3,444.9L688.6,446.2L687.0,446.2L684.2,445.5L683.8,446.1L683.6,446.9L683.3,447.7L682.6,448.0L681.7,447.8L681.0,447.5L680.4,447.5L679.8,448.0L679.1,447.1L678.3,446.4L677.5,446.0L676.6,446.1Z"/>
<path d="M525.1,436.6L524.1,436.8L523.5,437.4L523.1,438.2L522.5,439.1L521.8,439.8L520.7,440.6L518.1,442.1L516.6,442.5L513.3,442.3L512.4,442.0L510.4,440.7L509.4,440.4L508.7,439.9L508.7,438.9L509.6,435.3L510.7,434.2L513.6,432.8L513.0,432.4L512.3,432.3L511.7,432.4L513.0,430.8L515.7,429.1L518.6,427.7L521.3,427.0L519.9,428.6L520.6,429.3L523.2,429.6L524.4,428.3L524.2,428.0L523.8,427.0L525.1,426.9L526.3,427.0L526.2,427.7L525.9,428.4L525.5,429.1L525.1,429.6L523.5,432.8L523.5,434.1L525.1,434.7L525.1,435.3L523.8,435.3L523.8,436.0L525.1,436.0L525.1,436.6Z"/>
<path d="M548.0,422.9L548.7,422.5L550.2,423.1L552.5,424.5L553.5,426.2L554.1,427.9L554.4,431.9L554.1,433.6L553.2,437.4L553.0,439.5L550.4,444.0L549.9,444.3L549.3,444.4L548.0,444.9L544.7,447.4L543.7,447.8L541.9,448.1L540.9,448.7L540.7,448.1L540.3,448.0L539.7,447.4L539.3,446.7L538.7,444.9L538.4,444.2L537.8,443.6L535.2,442.3L535.6,441.8L535.7,441.3L535.4,440.7L534.9,440.1L534.5,439.4L534.4,438.6L534.5,438.0L534.6,437.8L533.2,435.6L532.1,434.5L530.8,434.0L530.8,433.4L531.4,433.0L531.8,432.8L532.2,433.0L532.7,433.4L533.6,432.8L537.1,429.6L543.2,426.1L543.7,425.5L545.1,423.6L545.7,423.3L547.6,423.2L548.0,422.9Z"/>
<path d="M447.4,424.5L446.7,423.9L449.7,422.3L451.3,422.0L452.5,422.6L453.1,422.6L453.6,422.1L454.0,422.0L454.6,422.2L455.1,422.6L455.6,423.9L455.9,425.5L455.9,427.3L455.7,429.0L455.1,427.7L454.4,427.7L454.4,428.8L454.1,429.7L453.4,430.3L452.5,430.9L452.3,430.6L452.2,430.5L452.1,430.4L451.9,430.2L451.8,429.8L452.0,429.7L452.2,429.7L452.5,429.6L451.7,429.2L450.9,429.1L450.1,429.2L449.3,429.6L449.1,428.7L448.9,428.4L448.5,428.5L448.1,429.0L447.3,428.6L446.6,428.7L446.0,429.0L445.5,429.6L445.1,428.5L445.4,428.3L446.2,427.7L445.5,427.2L445.5,426.7L445.9,426.3L446.7,425.8L446.4,425.1L446.6,424.8L447.4,424.5Z"/>
<path d="M325.3,414.3L325.8,414.7L327.4,415.4L328.0,415.9L328.4,416.6L328.6,417.5L328.4,418.4L327.5,418.8L325.5,418.5L324.4,417.6L323.5,416.6L322.1,415.6L322.8,415.0L323.5,414.6L324.3,414.4L325.3,414.3Z"/>
<path d="M367.9,406.7L366.4,407.8L364.2,408.6L361.9,408.9L360.2,408.6L360.6,410.5L359.5,411.4L357.6,411.7L355.5,411.7L350.2,413.0L348.1,413.0L348.1,412.4L356.4,407.9L358.6,407.4L362.8,407.3L364.7,406.7L367.9,406.7Z"/>
<path d="M440.4,402.9L441.0,400.4L443.0,398.7L445.2,397.3L446.7,395.9L447.4,395.9L447.4,397.2L447.2,397.9L446.6,399.3L446.2,399.7L449.8,401.4L451.0,402.8L450.6,404.8L449.3,404.5L448.3,405.5L447.6,407.1L447.4,408.6L446.1,409.6L444.5,411.0L442.3,412.0L440.4,412.4L441.2,409.1L442.0,407.6L443.6,406.7L443.6,406.1L443.1,405.9L442.7,405.6L442.3,405.4L442.3,404.8L443.1,403.8L442.9,402.9L441.9,402.4L440.4,402.9Z"/>
<path d="M535.8,402.3L534.6,402.1L527.6,402.9L527.8,402.1L527.8,401.9L527.7,401.7L527.6,401.3L527.8,400.6L528.3,400.4L528.7,400.4L528.9,400.3L529.4,398.1L529.0,397.4L527.6,397.2L528.1,395.8L529.2,395.1L530.5,394.7L531.4,393.9L534.1,397.7L534.6,397.5L534.9,395.6L535.8,395.2L538.7,395.9L539.1,396.1L539.6,396.6L540.3,397.0L542.1,397.5L542.3,398.1L542.1,398.9L541.6,399.7L540.2,400.2L538.4,400.2L537.0,400.5L536.5,402.3L535.8,402.3Z"/>
<path d="M493.8,400.7L494.1,400.9L494.7,401.2L495.3,401.7L495.7,402.3L495.9,403.2L495.8,403.8L495.1,404.2L489.5,406.6L488.1,407.4L488.1,406.5L488.1,405.8L488.4,405.3L488.8,404.8L488.8,404.1L488.1,404.2L486.2,404.1L486.5,403.3L486.8,402.6L487.4,402.0L488.1,401.6L487.7,401.5L486.8,401.0L488.6,400.7L489.6,399.4L490.1,397.9L490.0,396.5L489.5,394.5L489.4,393.7L490.3,393.7L492.6,393.9L493.4,394.7L494.3,396.0L494.9,397.4L495.1,398.4L494.9,399.1L494.0,399.9L493.8,400.7Z"/>
<path d="M507.6,387.0L506.6,386.6L503.5,383.8L499.9,382.4L498.9,381.9L498.3,381.1L497.6,380.0L497.4,378.9L497.7,378.1L498.9,377.8L504.0,378.1L504.5,378.2L505.4,378.7L505.4,379.3L504.7,379.3L504.7,380.0L505.6,380.0L506.3,380.3L506.8,380.7L507.3,381.2L508.7,380.4L510.5,380.6L512.1,381.4L513.0,382.5L514.4,381.1L517.0,381.6L519.8,382.6L521.9,383.1L521.3,383.8L522.1,384.0L522.6,384.6L522.9,385.4L523.2,386.3L520.9,388.8L520.2,391.2L519.2,391.6L514.9,391.1L512.3,389.8L510.7,389.5L509.8,389.1L508.7,387.4L507.6,387.0Z"/>
<path d="M441.0,377.4L443.6,380.2L443.0,383.1L440.6,385.8L437.9,388.2L435.3,391.1L433.5,392.3L431.8,391.7L431.8,390.4L432.2,385.8L432.1,385.0L432.0,383.3L433.1,381.2L434.6,379.7L436.0,380.0L436.7,379.4L437.2,378.7L436.3,378.7L436.0,378.7L436.0,378.1L436.9,377.6L437.8,377.4L438.5,377.5L439.1,378.1L439.8,378.1L439.8,377.5L440.1,377.4L440.5,377.5L441.0,377.4Z"/>
<path d="M625.6,377.4L624.0,379.9L621.6,382.2L613.4,388.1L611.8,388.6L603.9,389.5L602.0,390.1L601.1,390.7L599.2,392.1L598.2,392.7L597.3,392.9L596.7,392.9L595.9,392.7L594.7,392.7L591.1,393.5L589.8,393.2L589.4,391.4L590.1,390.2L593.1,387.7L593.8,386.7L594.4,385.3L595.9,383.8L597.6,382.5L598.9,381.9L601.2,381.8L606.5,382.4L608.4,381.9L610.3,382.4L613.1,381.7L615.6,380.6L618.0,378.4L621.1,377.7L625.6,377.4Z"/>
<path d="M364.1,369.2L365.6,369.8L365.0,370.8L363.9,371.9L364.1,373.0L362.8,373.8L362.5,374.8L362.6,375.8L362.2,376.8L361.4,377.2L359.3,377.6L358.3,378.1L357.6,377.5L357.1,377.2L355.8,376.8L355.8,376.2L356.9,375.6L356.8,374.8L356.0,373.9L354.8,373.6L353.7,373.0L353.0,371.7L352.8,370.4L352.9,369.8L364.1,369.2Z"/>
<path d="M689.3,373.6L690.3,373.0L690.9,373.4L691.0,374.4L690.5,375.5L688.3,374.9L684.9,375.5L676.5,378.1L675.6,378.6L674.6,379.3L674.1,380.0L673.9,380.5L673.6,380.9L672.7,381.2L671.9,381.4L666.0,381.2L665.1,381.0L664.7,380.4L664.5,379.7L664.1,379.0L662.6,377.1L661.7,376.4L659.5,376.0L658.5,375.1L657.8,374.9L656.9,375.0L655.5,375.4L653.0,375.7L651.5,376.2L650.3,377.0L649.8,378.1L649.1,378.1L649.1,377.4L648.6,377.4L647.6,378.2L646.7,377.3L646.2,375.7L646.0,374.6L645.9,372.3L646.2,371.3L647.2,370.4L648.8,370.0L650.5,369.8L651.8,369.4L652.3,368.2L653.1,367.5L663.7,365.5L666.9,365.5L670.2,366.0L671.5,366.6L673.9,368.2L677.1,368.9L680.7,370.8L681.7,371.7L682.1,370.7L681.5,369.8L680.6,369.0L679.8,367.9L681.3,368.3L682.4,368.3L683.3,367.9L684.2,367.2L684.3,368.3L686.8,368.9L691.2,369.2L688.5,370.2L688.0,370.4L687.8,371.2L688.2,371.8L688.8,372.6L689.3,373.6Z"/>
<path d="M118.4,367.5L120.0,370.0L126.3,373.3L127.2,376.2L126.0,375.0L123.3,373.9L120.2,373.2L117.7,373.0L116.3,373.5L115.5,374.3L114.9,375.1L114.2,375.5L113.0,376.0L113.1,377.0L113.6,378.1L113.9,378.7L113.8,379.9L113.3,380.4L112.3,380.6L110.4,380.6L109.7,380.2L106.9,377.4L102.3,374.4L100.1,372.6L99.9,371.0L97.9,369.6L94.4,365.8L92.2,364.7L92.9,363.6L92.5,362.1L93.0,361.5L92.2,360.8L96.0,356.6L98.4,354.8L100.5,355.2L100.6,355.5L100.6,355.7L101.0,356.1L101.0,356.3L102.9,359.2L103.6,361.0L104.6,361.7L106.9,362.8L109.8,362.2L113.7,363.4L117.0,365.5L118.4,367.5Z"/>
<path d="M498.3,369.8L498.6,371.1L497.7,372.8L496.4,374.4L495.1,375.5L495.3,375.9L495.7,377.4L495.1,377.4L494.4,376.5L492.3,375.2L491.3,374.3L489.6,370.4L489.1,369.8L487.6,369.7L486.6,369.3L485.6,368.6L484.6,367.5L483.1,365.2L482.1,364.6L480.5,365.3L480.0,362.8L478.3,361.0L476.2,359.7L474.8,358.3L474.2,358.3L473.5,359.2L472.7,359.5L472.4,359.0L472.9,357.7L472.1,356.9L470.8,355.3L469.7,354.5L470.8,354.2L470.9,353.8L470.5,353.2L470.3,352.3L470.6,351.4L471.4,350.8L476.5,348.6L478.6,348.2L479.9,348.8L479.8,349.8L480.0,350.4L480.6,350.6L481.5,350.7L482.4,351.0L483.3,351.7L483.7,352.4L483.4,352.7L483.3,353.1L484.0,355.2L484.3,355.8L485.0,356.2L487.5,357.0L494.8,357.0L495.7,357.8L495.3,359.7L493.8,362.8L497.7,365.3L497.1,365.8L496.8,365.9L496.4,366.0L496.5,367.2L495.9,368.0L495.2,368.6L495.1,369.2L495.8,369.7L497.3,369.2L498.3,369.8Z"/>
<path d="M351.3,357.7L350.7,357.0L350.7,356.4L351.3,355.5L352.6,354.5L354.1,353.9L356.8,354.6L358.1,353.7L359.0,352.3L359.6,351.3L358.4,351.4L357.6,351.9L356.9,352.4L356.1,352.7L355.3,352.5L353.6,352.0L352.5,352.0L355.8,350.7L354.6,350.2L353.2,349.4L354.3,349.3L355.3,349.3L356.2,349.6L357.0,350.1L357.2,349.4L357.4,349.2L357.4,349.2L357.0,348.8L357.7,348.4L358.5,348.1L359.3,348.1L361.5,348.3L362.6,348.8L363.2,349.4L362.7,350.1L362.8,350.6L363.0,351.2L363.6,351.8L364.1,352.1L364.0,352.2L364.1,352.7L366.6,352.7L363.4,353.9L363.8,354.9L361.8,356.2L361.5,357.7L360.9,357.7L359.9,357.0L359.0,357.5L358.0,358.5L356.7,359.0L355.4,358.9L352.5,358.2L351.3,357.7Z"/>
<path d="M102.8,342.5L101.4,342.1L100.2,341.2L98.0,339.2L95.3,337.9L91.8,337.1L88.6,337.5L87.2,339.9L85.4,338.8L82.0,338.0L80.8,336.7L80.5,335.9L80.3,334.1L80.1,333.5L78.6,331.3L78.2,330.4L79.4,330.6L80.9,331.8L82.0,332.3L82.0,331.6L80.6,330.5L79.6,329.0L77.1,324.0L76.1,322.6L75.1,322.4L74.4,324.0L74.5,325.5L75.2,328.5L75.1,330.4L74.2,332.0L73.0,332.6L71.7,333.1L70.6,334.2L70.0,334.2L69.4,332.6L66.8,331.3L66.2,329.7L66.6,328.9L67.3,328.0L67.8,327.0L67.7,326.2L67.3,325.4L67.6,324.7L68.1,324.2L68.7,324.0L70.0,322.8L71.1,320.4L71.7,317.4L71.8,314.4L72.4,315.8L72.5,316.4L73.1,316.4L74.4,314.5L75.1,315.2L75.8,316.9L77.0,318.3L77.7,317.5L78.1,318.0L78.4,319.0L79.2,319.5L80.1,319.2L81.7,317.9L83.9,316.9L84.7,315.4L84.8,313.5L84.0,311.9L85.9,312.5L84.8,309.4L84.6,308.7L84.8,307.5L85.1,306.5L85.2,305.6L84.6,304.8L84.6,304.2L87.8,304.2L92.8,315.6L93.0,316.4L92.8,317.8L92.3,318.5L91.4,319.2L90.3,320.2L91.1,321.0L93.3,324.3L94.4,324.7L95.7,323.9L97.0,322.7L98.0,322.1L97.8,322.4L97.6,323.0L97.4,323.4L99.1,323.7L99.7,324.6L99.9,325.9L100.5,327.2L104.5,330.0L105.5,332.4L108.8,336.1L109.5,337.5L109.7,339.0L109.4,340.6L108.5,342.1L108.0,342.2L105.6,341.8L104.8,341.9L103.7,342.3L102.8,342.5Z"/>
<path d="M101.2,311.9L102.3,312.1L103.3,312.6L105.0,313.8L104.6,313.7L103.2,313.8L103.8,316.3L104.4,317.2L105.6,317.6L105.6,318.3L103.1,318.5L101.5,318.9L100.2,318.7L98.6,317.0L99.3,316.4L97.9,315.2L96.7,313.8L94.8,310.6L94.7,309.9L94.4,307.8L94.1,306.8L93.4,306.2L92.4,305.7L91.8,304.9L92.2,303.6L93.7,304.3L94.5,303.8L95.5,301.7L97.1,302.1L97.3,303.2L96.7,304.6L96.1,305.5L97.7,305.4L98.7,305.7L99.5,306.3L100.5,306.8L100.0,308.7L99.3,310.3L97.4,313.2L98.1,313.5L99.0,313.8L100.1,313.9L101.2,313.8L101.2,313.2L99.9,312.5L101.8,312.5L101.2,311.9Z"/>
<path d="M607.2,297.9L606.0,299.0L605.8,300.9L605.4,302.5L603.3,303.0L604.0,303.8L604.4,304.1L605.2,304.2L604.6,304.8L606.3,304.9L606.3,305.5L605.2,306.8L604.9,308.2L604.9,309.4L605.9,316.4L607.2,320.2L604.7,320.4L602.5,321.9L601.5,324.0L602.4,326.2L602.4,327.6L600.2,328.5L595.7,329.7L595.0,330.6L594.4,332.7L593.8,333.5L592.9,333.7L591.0,333.0L589.6,332.8L588.7,332.3L586.6,330.1L586.2,330.0L585.9,330.1L585.0,329.4L584.1,328.3L583.7,327.2L583.2,327.4L582.2,327.6L581.7,327.8L581.8,327.1L581.7,325.9L581.7,325.2L580.2,326.0L579.5,325.4L579.7,324.1L580.5,322.7L581.4,322.1L582.6,321.7L584.3,321.4L584.8,321.1L585.9,320.2L588.1,320.3L588.7,320.2L589.3,319.1L589.3,317.9L589.7,316.9L591.2,316.4L590.8,315.3L591.0,313.0L590.6,311.9L590.4,312.2L590.4,312.3L590.3,312.3L589.9,312.5L589.5,311.8L588.9,311.3L588.2,310.9L587.4,310.6L587.9,309.8L587.8,308.5L587.4,307.2L586.8,306.1L585.6,305.2L584.6,304.9L583.4,304.8L581.7,304.2L580.4,303.4L577.4,300.4L576.6,299.2L576.4,297.7L576.9,296.7L577.6,295.7L577.9,294.4L591.5,292.1L593.4,292.4L597.9,293.5L598.1,294.1L602.0,297.9L602.3,297.4L602.4,297.0L602.7,296.7L603.3,296.6L603.4,296.2L603.2,296.0L603.0,296.0L602.7,295.9L604.1,295.6L605.3,295.8L606.3,296.6L607.2,297.9Z"/>
<path d="M553.8,291.5L554.4,292.2L556.9,294.0L556.9,294.5L556.8,294.6L556.5,294.6L556.2,294.7L555.5,298.0L555.3,298.5L554.0,298.4L553.0,298.1L552.2,298.0L551.2,298.5L550.9,297.7L551.0,297.1L551.3,296.5L551.2,295.9L550.8,295.5L549.7,294.7L549.3,294.0L548.1,293.3L547.7,292.8L548.0,292.1L548.6,291.9L549.2,292.1L549.6,292.5L549.9,292.8L550.4,292.1L551.1,291.7L551.8,291.6L552.5,292.1L553.0,292.1L553.0,291.5L553.8,291.5Z"/>
<path d="M89.1,290.9L88.2,291.8L87.2,293.1L85.9,295.4L85.3,295.4L85.3,293.0L86.9,284.1L88.7,281.0L89.1,279.1L90.7,275.7L91.5,275.3L92.3,274.4L93.5,272.4L94.6,271.4L96.4,270.2L98.4,269.3L98.7,269.7L98.8,270.1L99.9,270.5L101.4,271.9L101.7,273.3L101.8,274.6L102.4,275.7L101.9,276.8L102.0,277.6L102.3,278.4L102.4,279.1L102.5,279.9L102.4,280.4L102.0,281.0L99.8,283.4L99.4,284.2L99.6,284.9L100.3,285.1L100.7,284.4L101.1,283.3L101.8,282.6L101.9,284.0L101.6,289.0L101.2,290.0L100.6,290.2L99.9,289.0L99.3,289.0L99.5,289.4L99.9,290.9L99.5,290.7L98.6,290.2L98.5,290.9L98.3,291.3L98.1,291.6L98.0,292.1L96.4,291.5L95.0,291.7L94.2,292.5L94.8,293.5L94.8,294.0L93.9,294.0L93.3,293.6L93.1,293.0L93.5,292.1L91.7,291.9L90.6,290.1L89.1,290.9Z"/>
<path d="M469.0,273.1L469.2,273.3L469.5,273.6L469.6,273.9L469.7,274.7L469.6,275.4L469.4,275.5L469.0,275.4L468.5,275.7L467.9,276.3L467.3,276.8L466.6,276.9L465.9,276.2L465.2,276.2L464.3,276.8L463.2,276.5L462.4,275.6L462.0,274.7L461.5,274.8L460.3,275.1L459.2,276.0L458.8,277.4L455.7,274.3L459.5,273.1L458.6,270.4L457.9,269.7L456.9,270.5L456.4,270.5L456.1,269.5L455.3,269.2L454.2,269.4L453.1,269.8L453.1,268.9L451.0,268.1L450.6,266.7L450.2,266.9L450.0,267.4L449.3,266.5L448.4,266.1L447.6,266.1L446.7,266.7L446.6,265.8L447.0,265.0L447.6,264.4L448.4,264.1L449.1,263.7L449.2,262.6L448.7,261.0L448.7,259.6L449.0,258.4L450.0,257.5L451.9,257.2L458.3,260.6L459.5,261.7L459.7,262.6L459.4,264.8L459.5,266.0L460.0,267.0L460.5,267.4L462.0,268.0L465.9,270.1L467.8,271.5L469.0,273.1Z"/>
<path d="M460.8,333.5L460.0,338.1L460.1,340.4L461.4,342.5L460.7,343.8L459.7,347.8L458.8,349.4L457.5,350.3L455.6,351.1L453.5,351.7L451.5,352.0L450.5,351.7L450.1,351.2L450.0,350.1L447.8,347.3L447.4,347.2L446.1,346.3L443.7,347.1L442.1,348.6L443.6,349.4L443.6,350.1L442.1,351.0L440.7,350.9L439.4,350.1L437.7,348.6L437.2,348.0L436.6,346.8L436.0,346.1L435.4,345.5L435.4,345.0L436.6,344.3L435.4,342.2L434.6,341.6L433.4,341.8L432.8,340.2L431.2,339.4L429.3,339.3L427.7,339.9L426.4,339.3L426.0,339.4L425.2,339.9L425.2,339.4L425.2,339.3L425.4,339.2L425.8,339.2L425.8,336.7L425.0,336.2L423.5,336.4L423.2,335.7L423.6,335.1L425.3,333.7L425.8,332.8L425.6,331.7L424.2,330.4L423.4,328.0L422.3,327.2L420.8,326.9L419.5,327.2L420.0,328.5L417.9,328.1L418.4,326.4L420.0,324.4L421.4,323.4L420.5,322.1L419.7,322.2L419.0,322.8L418.1,323.4L418.0,323.6L418.0,324.1L417.9,324.5L417.2,324.6L416.4,324.5L416.3,324.0L416.6,323.6L416.9,323.4L416.9,322.7L415.6,322.7L417.5,319.5L415.6,318.7L413.6,318.0L411.3,317.7L408.6,317.6L410.8,317.0L411.8,316.6L412.4,315.7L411.7,314.8L411.5,314.0L411.6,313.4L411.7,313.2L410.8,311.6L410.1,311.0L409.8,311.5L404.4,311.2L398.1,311.9L396.2,311.7L393.0,310.8L391.7,310.6L389.9,310.7L387.1,311.3L385.7,311.2L379.3,310.0L377.9,310.1L374.9,310.7L373.6,310.6L372.6,309.7L370.4,305.5L370.1,305.8L369.8,306.1L369.3,306.2L368.5,306.1L369.4,304.8L371.2,303.2L372.4,301.7L371.7,300.4L371.7,299.7L372.4,299.7L372.4,299.2L370.4,296.4L369.1,295.2L367.6,294.7L363.5,294.2L361.5,293.6L360.2,292.8L359.9,292.1L359.8,290.4L359.6,289.7L357.4,288.3L357.0,288.0L356.7,287.7L356.1,287.5L355.4,287.2L355.1,286.1L354.8,285.4L353.9,284.8L351.1,283.4L348.8,282.6L346.2,280.3L345.3,280.0L344.7,279.6L343.8,277.9L343.3,277.4L341.2,276.6L332.1,271.2L328.9,269.8L326.7,269.3L325.5,269.2L323.9,269.3L321.1,269.7L319.8,269.6L318.5,268.9L316.7,267.1L316.0,266.8L314.7,266.7L313.2,266.5L311.8,266.0L310.5,265.7L309.3,266.0L309.3,266.7L310.6,266.8L311.8,267.1L312.6,268.0L312.5,269.3L311.6,269.8L310.1,270.2L299.9,270.9L297.8,271.9L297.8,270.8L297.9,269.8L298.2,268.9L298.8,268.6L299.5,268.3L301.7,267.0L302.6,266.7L304.7,266.3L308.9,264.5L311.7,264.0L314.4,262.9L316.6,262.2L317.0,262.0L317.4,260.7L317.6,260.3L318.7,260.0L320.6,260.0L321.4,259.6L322.0,258.9L322.4,258.0L322.4,257.2L322.1,256.5L323.5,256.2L325.2,254.9L326.2,254.6L331.9,254.6L333.8,254.0L338.7,251.8L341.1,251.5L342.1,251.8L343.4,253.1L344.0,253.4L345.2,253.5L346.6,253.8L347.8,254.4L348.8,255.3L348.1,257.0L349.1,258.4L350.9,259.3L352.9,259.6L352.9,260.6L354.4,264.8L355.1,266.0L355.2,267.0L356.3,268.8L358.0,270.4L362.1,271.8L366.1,274.5L368.5,275.0L368.5,275.7L368.3,276.4L368.5,276.7L369.1,276.7L369.8,276.2L370.9,277.2L373.6,277.6L374.8,278.1L375.8,277.6L376.8,278.1L378.6,277.2L380.5,277.5L381.9,278.7L382.5,280.4L383.3,281.5L385.2,282.5L388.8,283.8L393.0,284.9L397.5,285.2L399.5,285.5L401.4,286.1L403.1,286.0L404.7,284.5L406.7,285.3L408.9,285.3L411.0,285.1L413.0,285.2L418.9,286.8L420.7,287.7L419.7,287.9L418.7,288.5L417.9,289.3L417.5,290.2L417.5,291.8L418.0,292.7L426.3,298.2L427.7,299.7L425.4,301.2L423.7,304.2L423.3,307.4L425.2,309.4L425.2,310.0L423.4,310.4L423.7,311.2L425.8,313.2L426.0,314.3L426.0,315.8L426.2,317.0L428.3,319.2L428.5,320.1L429.0,320.6L429.5,320.9L429.7,321.1L429.6,322.8L429.7,323.6L430.2,324.2L429.2,325.4L429.0,325.9L429.7,327.1L430.9,328.2L433.4,329.7L436.6,331.0L436.9,331.5L437.2,332.4L437.6,333.1L438.2,333.5L441.4,333.0L442.7,333.0L445.3,334.6L449.0,334.9L450.6,335.4L452.4,334.7L460.8,333.5Z"/>
<path d="M353.9,241.8L352.8,241.6L351.8,241.5L350.9,241.6L350.0,241.8L350.4,240.2L351.5,239.6L352.7,239.4L353.2,239.0L353.6,238.0L354.6,237.0L355.9,236.1L357.0,235.5L358.5,236.3L360.1,237.4L361.0,238.8L360.2,240.6L358.8,239.7L357.5,240.7L356.1,243.2L355.4,243.0L354.6,242.2L353.9,241.8Z"/>
<path d="M375.5,244.4L374.6,244.0L371.6,241.7L371.0,240.9L370.7,239.7L367.9,236.1L369.2,235.5L369.3,236.0L369.5,236.1L369.9,236.1L370.4,236.1L372.6,238.0L375.1,239.6L378.0,241.0L381.2,241.8L380.8,243.2L382.6,243.4L385.1,243.4L387.0,243.8L387.0,244.4L383.9,247.0L382.2,247.9L379.9,248.2L379.0,248.0L377.7,247.1L375.2,246.8L374.5,246.3L374.5,245.7L375.5,245.1L375.5,244.4Z"/>
<path d="M47.7,233.0L49.1,234.2L50.8,235.2L52.4,236.6L53.4,238.7L51.5,238.7L50.4,238.4L49.4,237.8L47.6,236.0L46.6,234.7L46.3,233.5L47.7,233.0Z"/>
<path d="M400.3,234.9L398.9,237.7L396.5,240.4L393.6,242.0L390.7,241.8L392.0,240.5L393.3,239.7L394.4,238.7L395.9,235.2L400.6,229.4L402.2,228.5L402.1,228.9L402.0,229.2L401.9,229.5L401.6,229.8L403.6,230.1L403.1,232.1L401.6,234.1L400.3,234.9Z"/>
<path d="M648.8,250.8L648.8,251.7L648.6,253.3L647.5,254.3L644.7,253.4L643.2,254.0L642.1,253.6L641.2,252.7L640.2,252.0L640.9,251.5L640.0,251.0L639.9,250.5L640.1,250.0L640.2,249.6L640.3,249.2L640.8,248.2L640.9,247.7L639.8,246.9L639.6,246.6L639.0,245.3L637.4,244.8L634.2,245.1L632.6,245.8L634.0,247.4L637.7,249.6L641.1,253.4L642.8,254.6L642.8,255.3L642.6,255.7L642.5,255.6L642.6,255.7L642.8,256.5L640.4,257.4L637.4,257.9L631.4,258.4L629.8,258.2L626.8,257.4L623.5,257.0L622.2,256.5L619.9,255.3L617.6,254.4L612.1,253.5L607.4,253.3L606.4,253.1L605.6,252.4L602.7,249.2L601.7,248.5L600.1,248.2L600.1,247.7L600.7,247.5L601.5,247.0L602.1,246.8L602.5,246.8L602.9,246.9L603.3,247.0L606.8,246.3L607.3,246.1L608.8,244.1L609.8,243.6L610.8,243.4L611.8,243.4L612.9,243.2L615.4,241.3L618.2,239.6L618.3,239.4L619.2,238.9L618.9,238.1L618.0,237.2L617.0,236.8L614.0,236.2L612.9,236.1L611.0,236.3L609.4,236.6L608.1,237.3L606.8,238.4L605.5,240.9L605.2,240.9L601.0,245.6L599.7,246.6L597.9,247.0L596.0,246.7L588.1,244.5L586.8,243.8L585.4,243.0L584.5,242.7L583.3,242.5L581.7,242.0L578.4,239.4L576.6,238.7L576.6,238.0L577.7,237.7L578.0,236.9L578.2,235.8L578.5,234.9L578.1,234.8L577.9,234.6L577.7,234.4L577.3,234.2L578.0,233.8L578.4,233.4L578.5,232.9L578.5,232.0L578.8,231.3L579.6,231.0L580.5,230.7L581.1,230.4L583.7,228.5L584.3,227.8L584.9,227.8L586.1,229.7L589.1,229.5L592.5,228.8L595.1,229.2L595.4,228.6L595.8,228.2L596.1,227.8L596.3,227.2L596.8,228.1L597.0,228.5L597.6,228.5L598.8,227.2L600.7,226.6L604.6,226.0L607.1,225.3L608.0,224.3L607.8,222.6L607.2,220.2L623.8,219.8L625.6,220.2L624.9,222.3L626.7,223.2L629.1,223.7L630.7,224.7L630.2,225.6L627.2,229.2L627.5,229.7L631.4,232.6L634.5,233.6L635.3,234.1L635.7,234.5L638.9,238.2L640.1,239.1L642.1,240.0L640.9,240.6L641.3,241.4L641.9,242.1L642.8,242.8L642.8,243.8L643.1,244.3L643.7,244.5L644.7,244.4L644.6,246.3L645.8,248.4L647.5,250.1L648.8,250.8Z"/>
<path d="M500.2,203.0L503.5,204.8L502.8,207.1L498.3,212.0L497.7,212.0L496.6,207.6L496.9,205.5L498.9,204.3L498.6,203.6L498.8,203.2L499.4,203.1L500.2,203.0Z"/>
<path d="M43.2,215.1L43.7,216.1L44.5,219.0L45.6,220.3L45.6,220.9L44.5,221.5L43.7,221.0L41.4,220.5L39.2,219.2L37.7,218.7L36.1,218.4L34.6,218.3L33.8,218.0L31.4,216.3L30.5,215.8L28.9,215.7L27.6,215.7L26.5,215.4L26.1,215.0L26.8,215.1L27.4,214.7L28.0,213.9L24.7,213.1L23.5,212.6L23.5,212.8L23.4,213.2L23.4,213.3L22.2,211.9L21.2,210.0L20.5,208.1L19.9,204.1L18.8,202.3L17.0,200.7L14.6,199.3L12.5,198.5L11.3,197.8L8.8,193.5L8.6,192.9L7.0,192.9L5.9,192.8L5.1,192.3L4.4,191.0L4.7,188.8L4.2,188.2L2.5,189.0L2.5,187.6L2.2,186.5L1.4,185.9L0.0,185.9L0.9,185.2L3.3,182.6L3.8,181.7L4.7,181.6L13.3,181.3L16.0,180.9L18.4,180.0L20.9,178.8L22.2,179.2L23.1,179.7L23.8,180.3L24.7,180.8L27.2,181.4L28.1,181.9L28.6,182.7L29.2,182.7L29.2,182.0L29.9,182.0L29.7,184.9L28.5,186.6L26.6,187.6L20.9,189.4L20.0,190.0L19.5,191.1L19.8,192.3L20.5,193.2L21.6,193.5L21.6,194.2L20.3,194.2L20.3,194.8L25.8,197.0L28.0,197.3L27.6,199.4L27.0,199.8L25.4,199.3L26.5,201.2L28.4,210.9L28.8,211.5L29.9,212.0L31.1,212.4L33.7,212.8L34.9,213.2L36.9,214.4L37.7,214.6L39.4,214.5L40.7,214.1L41.6,213.7L42.3,213.9L43.2,215.1Z"/>
<path d="M540.9,159.2L540.1,160.1L539.7,160.5L539.7,161.0L540.1,161.0L540.2,161.1L540.2,161.4L540.5,162.2L540.6,163.2L540.9,163.6L538.7,164.6L536.4,165.9L534.9,167.7L535.2,170.0L533.9,170.0L532.9,170.2L532.1,170.7L531.4,171.2L532.7,171.8L533.3,171.9L531.9,172.5L530.8,173.3L530.7,174.2L532.1,175.0L530.9,176.0L531.5,177.1L532.6,178.0L533.3,178.8L533.4,179.5L533.3,179.6L532.9,179.6L532.1,180.2L531.9,180.8L531.9,181.7L531.5,182.3L530.5,181.7L529.9,181.5L527.3,180.8L526.5,180.4L526.4,179.5L526.4,178.7L526.1,178.3L524.5,177.8L522.9,175.9L521.3,175.7L523.4,174.6L524.6,173.7L525.1,172.8L524.6,171.5L523.6,170.6L522.4,170.1L521.3,170.0L517.4,172.5L518.3,172.5L519.0,172.6L519.5,172.8L520.0,173.2L518.3,173.4L517.1,174.3L516.2,175.6L515.6,176.9L516.3,176.7L516.5,176.6L516.8,176.3L517.9,177.3L519.0,178.8L519.6,180.2L519.0,180.8L517.0,180.7L515.4,180.5L512.4,179.5L514.5,176.9L514.9,176.6L514.4,175.6L513.4,175.9L512.3,176.8L511.7,177.6L511.1,177.6L511.0,176.9L510.9,176.5L510.6,176.2L510.4,175.7L505.0,177.0L504.0,177.6L503.5,177.6L503.8,177.0L504.1,176.6L504.6,176.1L505.4,175.7L504.8,175.5L504.2,175.2L503.5,175.0L503.6,174.2L503.5,173.8L504.0,173.4L504.7,173.2L504.7,172.5L504.0,172.5L504.0,171.9L504.5,171.8L504.7,171.7L505.4,171.2L504.7,171.2L505.4,169.9L505.0,169.1L504.2,168.4L503.5,167.4L503.4,166.1L503.5,164.9L503.3,164.0L502.2,163.6L502.2,163.0L505.5,162.8L511.4,161.7L512.3,161.9L512.9,162.3L513.3,162.8L513.6,163.0L515.1,162.8L520.0,161.7L522.1,162.3L523.3,163.4L524.4,164.7L525.8,166.2L525.6,166.9L527.6,166.3L530.1,165.1L531.4,164.3L531.4,163.4L533.4,161.2L534.6,160.5L534.9,160.5L537.4,160.5L538.2,160.3L540.9,159.2Z"/>
<path d="M563.2,121.0L563.7,122.4L562.5,123.3L553.8,125.6L551.8,125.4L548.6,124.0L542.4,120.2L541.1,119.0L540.3,117.8L542.0,117.8L547.4,115.4L549.9,114.7L552.6,114.7L560.1,116.5L561.5,117.3L563.1,118.4L563.9,119.7L563.2,121.0Z"/>
<path d="M479.3,94.3L477.3,94.4L476.7,95.4L477.4,96.5L479.3,96.8L479.3,98.7L477.7,99.1L477.3,100.4L478.0,103.2L478.6,104.2L478.9,105.0L478.7,105.7L478.0,105.8L476.4,105.0L476.1,105.4L475.4,106.0L473.7,106.5L470.7,107.0L469.5,107.3L467.3,108.9L465.9,109.6L465.4,108.7L464.8,108.0L463.3,107.0L463.0,106.9L462.3,107.0L462.0,107.0L462.0,106.7L462.1,105.9L462.0,105.7L460.7,104.8L460.1,104.5L457.5,104.0L455.5,104.0L454.2,103.2L453.8,100.6L454.4,98.2L455.8,95.9L458.8,92.4L465.9,87.9L468.9,89.0L472.7,89.4L474.2,89.8L474.5,90.4L474.8,91.2L475.3,92.0L476.4,92.4L477.4,92.6L478.2,93.0L478.9,93.6L479.3,94.3Z"/>
<path d="M737.4,511.2L742.1,511.4L742.3,511.9L742.3,512.8L741.9,513.6L741.5,513.9L740.8,513.8L739.0,514.2L737.7,514.0L736.0,513.9L734.2,514.3L733.0,513.8L732.9,512.5L733.8,511.7L734.4,511.5L735.8,511.3L737.4,511.2Z"/>
<path d="M702.1,476.8L702.9,477.6L704.0,479.5L703.2,481.2L701.1,481.9L699.8,481.9L697.9,481.7L696.9,481.1L696.6,480.1L697.6,478.2L700.3,476.9L702.1,476.8Z"/>
<path d="M672.9,428.7L673.5,429.1L674.3,430.3L674.3,431.3L673.7,431.5L673.3,431.5L673.3,431.8L672.8,432.0L672.0,432.1L670.9,432.0L669.8,431.4L669.8,430.7L670.8,430.2L671.1,429.5L670.3,429.5L669.0,430.1L667.9,430.0L667.2,429.1L667.6,428.3L667.8,427.5L666.9,427.0L665.8,426.7L665.2,426.1L664.1,425.4L663.7,424.1L664.8,423.3L666.1,423.4L666.4,423.2L666.3,422.6L667.0,422.5L667.9,423.0L668.4,423.2L668.8,423.1L669.1,423.2L669.5,423.4L670.1,423.5L670.9,423.7L671.2,424.2L670.6,425.2L670.4,426.1L671.3,426.4L672.2,426.9L672.8,428.0L672.9,428.7Z"/>
<path d="M647.6,408.1L648.0,408.7L648.3,409.6L647.8,409.8L647.3,409.4L646.7,409.1L646.3,409.0L646.0,408.9L645.1,408.9L644.3,409.4L644.0,410.1L643.8,410.5L643.5,410.7L642.9,410.8L643.4,411.4L644.5,412.5L644.7,415.6L643.7,415.9L642.7,415.4L642.8,414.8L642.6,414.3L641.5,414.0L641.1,413.2L641.6,410.9L641.9,410.3L642.0,409.7L641.7,408.9L641.5,407.6L641.8,406.5L642.6,406.5L643.7,406.6L644.8,406.3L645.9,406.7L646.8,407.3L647.4,407.8L647.6,408.1Z"/>
<path d="M122.5,287.7L123.1,288.0L123.2,288.9L122.2,290.0L121.0,290.7L119.6,291.4L118.9,291.6L118.1,292.0L117.1,292.9L116.3,294.0L115.6,294.2L115.3,293.3L115.5,292.2L117.2,289.9L118.6,288.6L120.3,288.1L122.5,287.7Z"/>
<path d="M109.1,286.5L109.5,286.4L109.5,286.8L109.2,287.3L108.7,287.8L107.9,288.4L105.5,288.9L105.2,290.0L106.5,290.8L107.3,291.4L107.4,291.7L108.1,292.1L109.0,293.0L107.8,292.6L104.5,290.1L103.1,287.7L104.0,286.6L105.5,286.4L107.4,285.6L107.9,286.0L108.3,286.2L108.8,286.0L109.0,286.2L108.9,286.4L109.1,286.5Z"/>
<path d="M413.8,222.7L414.6,223.0L415.0,223.3L414.9,224.8L413.8,227.1L412.1,227.8L411.2,227.1L411.3,226.4L411.7,226.2L411.4,225.8L410.5,225.4L410.1,224.7L410.4,223.7L410.9,222.7L411.7,221.9L412.4,221.7L412.6,222.6L412.7,223.3L413.1,223.0L413.8,222.7Z"/>
</svg>